<svg xmlns="http://www.w3.org/2000/svg" width="64.001" height="64" viewBox="0 0 64.001 64">
  <g id="psd_icon" transform="translate(-1216 -2538.939)">
    <path id="패스_37" data-name="패스 37" d="M1270,2538.939h-44a10,10,0,0,0-10,10v26.1h0v5h0v12.9a10,10,0,0,0,10,10h44a10,10,0,0,0,10-10v-44A10,10,0,0,0,1270,2538.939Z" fill="#2c3a54"/>
    <path id="패스_38" data-name="패스 38" d="M1234.969,2563.432h-.529a1.5,1.5,0,0,0-1.5,1.5v12a1.5,1.5,0,0,0,1.5,1.5h.529a1.5,1.5,0,0,0,1.5-1.5v-3.054a5.608,5.608,0,0,0,2.311-1.334,5.044,5.044,0,0,0,1.689-3.773,5.123,5.123,0,0,0-1.619-3.768A5.368,5.368,0,0,0,1234.969,2563.432Zm1.5,4.141a1.762,1.762,0,0,1,0,2.4Z" fill="#fff"/>
    <path id="패스_39" data-name="패스 39" d="M1249.917,2570.081a10.483,10.483,0,0,0-1.273-.975q-.638-.414-1.272-.779a10.059,10.059,0,0,1-.933-.6c-.154-.116-.514-.408-.514-.716,0-.171.034-.2.046-.212a.445.445,0,0,1,.342-.112,1.173,1.173,0,0,1,.636.165,1.279,1.279,0,0,1,.466.5,1.5,1.5,0,0,0,2.814-.722v-.816a1.5,1.5,0,0,0-.325-.933,4.326,4.326,0,0,0-3.51-1.655,4.181,4.181,0,0,0-2.73.933,3.554,3.554,0,0,0-1.267,2.87v.113a3.789,3.789,0,0,0,.678,2.174,5.111,5.111,0,0,0,1.469,1.424q.629.4,1.369.87.714.452,1.316.86a2.13,2.13,0,0,1,.613.643,1.32,1.32,0,0,1,.187.765,1.082,1.082,0,0,1-.365.917,1.578,1.578,0,0,1-1.095.4,1.939,1.939,0,0,1-1.145-.295,2.1,2.1,0,0,1-.722-.875,1.5,1.5,0,0,0-2.865.623v.864a1.5,1.5,0,0,0,.254.835,5.027,5.027,0,0,0,4.35,2.312,5.231,5.231,0,0,0,3.536-1.262,4.548,4.548,0,0,0,1.548-3.549v-.16a4.682,4.682,0,0,0-.464-2.067A5.032,5.032,0,0,0,1249.917,2570.081Z" fill="#fff"/>
    <path id="패스_40" data-name="패스 40" d="M1261.009,2565.676a7.121,7.121,0,0,0-5.433-2.244h-.512a1.5,1.5,0,0,0-1.5,1.5v12a1.5,1.5,0,0,0,1.5,1.5h.512a7.125,7.125,0,0,0,5.442-2.238,7.778,7.778,0,0,0-.009-10.518Zm-2.574,8.125a3.4,3.4,0,0,1-1.359.918v-7.586a3.364,3.364,0,0,1,1.355.925,4.081,4.081,0,0,1,1.1,2.881A4.027,4.027,0,0,1,1258.435,2573.8Z" fill="#fff"/>
  </g>
</svg>
