<svg xmlns="http://www.w3.org/2000/svg" width="180" height="71.26" viewBox="0 0 180 71.26">
  <g id="barcode" transform="translate(-1690 -947.434)">
    <g id="barcode-2" data-name="barcode">
      <rect id="사각형_94" data-name="사각형 94" width="2.33" height="60" transform="translate(1690 947.434)" fill="#fff"/>
      <rect id="사각형_95" data-name="사각형 95" width="1.165" height="60" transform="translate(1693.719 947.434)" fill="#fff"/>
      <rect id="사각형_96" data-name="사각형 96" width="1.165" height="60" transform="translate(1697.437 947.434)" fill="#fff"/>
      <rect id="사각형_97" data-name="사각형 97" width="1.165" height="60" transform="translate(1703.61 947.434)" fill="#fff"/>
      <rect id="사각형_98" data-name="사각형 98" width="1.165" height="60" transform="translate(1717.295 947.434)" fill="#fff"/>
      <rect id="사각형_99" data-name="사각형 99" width="1.165" height="60" transform="translate(1726.034 947.434)" fill="#fff"/>
      <rect id="사각형_100" data-name="사각형 100" width="1.165" height="60" transform="translate(1730.943 947.434)" fill="#fff"/>
      <rect id="사각형_101" data-name="사각형 101" width="1.165" height="60" transform="translate(1744.627 947.434)" fill="#fff"/>
      <rect id="사각형_102" data-name="사각형 102" width="1.165" height="60" transform="translate(1767.014 947.434)" fill="#fff"/>
      <rect id="사각형_103" data-name="사각형 103" width="1.165" height="60" transform="translate(1772.071 947.434)" fill="#fff"/>
      <rect id="사각형_104" data-name="사각형 104" width="1.165" height="60" transform="translate(1785.607 947.434)" fill="#fff"/>
      <rect id="사각형_105" data-name="사각형 105" width="1.165" height="60" transform="translate(1805.514 947.434)" fill="#fff"/>
      <rect id="사각형_106" data-name="사각형 106" width="1.165" height="60" transform="translate(1826.636 947.434)" fill="#fff"/>
      <rect id="사각형_107" data-name="사각형 107" width="1.165" height="60" transform="translate(1840.296 947.434)" fill="#fff"/>
      <rect id="사각형_108" data-name="사각형 108" width="1.165" height="60" transform="translate(1851.402 947.434)" fill="#fff"/>
      <rect id="사각형_109" data-name="사각형 109" width="1.165" height="60" transform="translate(1865.087 947.434)" fill="#fff"/>
      <rect id="사각형_110" data-name="사각형 110" width="1.165" height="60" transform="translate(1824.058 947.434)" fill="#fff"/>
      <rect id="사각형_111" data-name="사각형 111" width="1.165" height="60" transform="translate(1819.199 947.434)" fill="#fff"/>
      <rect id="사각형_112" data-name="사각형 112" width="2.33" height="60" transform="translate(1706.133 947.434)" fill="#fff"/>
      <rect id="사각형_113" data-name="사각형 113" width="2.33" height="60" transform="translate(1722.272 947.434)" fill="#fff"/>
      <rect id="사각형_114" data-name="사각형 114" width="2.33" height="60" transform="translate(1741.057 947.434)" fill="#fff"/>
      <rect id="사각형_115" data-name="사각형 115" width="2.33" height="60" transform="translate(1754.573 947.434)" fill="#fff"/>
      <rect id="사각형_116" data-name="사각형 116" width="2.33" height="60" transform="translate(1763.497 947.434)" fill="#fff"/>
      <rect id="사각형_117" data-name="사각형 117" width="2.33" height="60" transform="translate(1782.091 947.434)" fill="#fff"/>
      <rect id="사각형_118" data-name="사각형 118" width="2.33" height="60" transform="translate(1795.577 947.434)" fill="#fff"/>
      <rect id="사각형_119" data-name="사각형 119" width="2.33" height="60" transform="translate(1799.345 947.434)" fill="#fff"/>
      <rect id="사각형_120" data-name="사각형 120" width="2.33" height="60" transform="translate(1812.931 947.434)" fill="#fff"/>
      <rect id="사각형_121" data-name="사각형 121" width="2.33" height="60" transform="translate(1834.053 947.434)" fill="#fff"/>
      <rect id="사각형_122" data-name="사각형 122" width="2.33" height="60" transform="translate(1853.787 947.434)" fill="#fff"/>
      <rect id="사각형_123" data-name="사각형 123" width="2.33" height="60" transform="translate(1867.67 947.434)" fill="#fff"/>
      <rect id="사각형_124" data-name="사각형 124" width="3.884" height="60" transform="translate(1736.032 947.434)" fill="#fff"/>
      <rect id="사각형_125" data-name="사각형 125" width="3.884" height="60" transform="translate(1746.965 947.434)" fill="#fff"/>
      <rect id="사각형_126" data-name="사각형 126" width="3.884" height="60" transform="translate(1758.27 947.434)" fill="#fff"/>
      <rect id="사각형_127" data-name="사각형 127" width="3.884" height="60" transform="translate(1776.788 947.434)" fill="#fff"/>
      <rect id="사각형_128" data-name="사각형 128" width="3.884" height="60" transform="translate(1790.374 947.434)" fill="#fff"/>
      <rect id="사각형_129" data-name="사각형 129" width="3.884" height="60" transform="translate(1807.827 947.434)" fill="#fff"/>
      <rect id="사각형_130" data-name="사각형 130" width="3.884" height="60" transform="translate(1828.949 947.434)" fill="#fff"/>
      <rect id="사각형_131" data-name="사각형 131" width="3.884" height="60" transform="translate(1860.186 947.434)" fill="#fff"/>
      <rect id="사각형_132" data-name="사각형 132" width="4.855" height="60" transform="translate(1844.045 947.434)" fill="#fff"/>
      <rect id="사각형_133" data-name="사각형 133" width="3.884" height="60" transform="translate(1709.964 947.434)" fill="#fff"/>
    </g>
    <g id="그룹_47" data-name="그룹 47">
      <path id="패스_60" data-name="패스 60" d="M1692.409,1012.124h1.919v4.7a1.473,1.473,0,0,1-.12.645.731.731,0,0,1-.431.36,2.7,2.7,0,0,1-.9.115h-2.485v.7h2.637a2.6,2.6,0,0,0,1.571-.406,1.531,1.531,0,0,0,.545-1.315v-5.5h-2.737Z" fill="#fff"/>
      <path id="패스_61" data-name="패스 61" d="M1710.266,1018.524h4.785v-.7h-3.968v-2.66h3.783v-.75h-3.783v-2.29h3.968v-.7h-4.785Z" fill="#fff"/>
      <path id="패스_62" data-name="패스 62" d="M1731.719,1011.254a2.51,2.51,0,0,0-2.1.971,5.495,5.495,0,0,0,0,5.494,2.505,2.505,0,0,0,2.1.975,2.443,2.443,0,0,0,2.094-.955,5.6,5.6,0,0,0,0-5.53A2.445,2.445,0,0,0,1731.719,1011.254Zm1.488,5.955a1.808,1.808,0,0,1-2.981,0,5.04,5.04,0,0,1,0-4.475,1.814,1.814,0,0,1,2.981,0,5.092,5.092,0,0,1,0,4.475Z" fill="#fff"/>
      <path id="패스_63" data-name="패스 63" d="M1748.595,1011.424v7.1h.817v-6.4h3.347l.011,6.4h.817l-.011-7.1Z" fill="#fff"/>
      <path id="패스_64" data-name="패스 64" d="M1770.364,1014.554l-1.94-3.13h-.981l2.485,3.83v3.271h.884v-3.29l2.475-3.811h-.981Z" fill="#fff"/>
      <path id="패스_65" data-name="패스 65" d="M1789.539,1011.254a2.511,2.511,0,0,0-2.1.971,5.494,5.494,0,0,0,0,5.494,2.506,2.506,0,0,0,2.1.975,2.442,2.442,0,0,0,2.094-.955,5.6,5.6,0,0,0,0-5.53A2.444,2.444,0,0,0,1789.539,1011.254Zm1.488,5.955a1.807,1.807,0,0,1-2.981,0,5.039,5.039,0,0,1,0-4.475,1.814,1.814,0,0,1,2.981,0,5.091,5.091,0,0,1,0,4.475Z" fill="#fff"/>
      <path id="패스_66" data-name="패스 66" d="M1808.813,1011.254a2.509,2.509,0,0,0-2.1.971,5.495,5.495,0,0,0,0,5.494,2.5,2.5,0,0,0,2.1.975,2.44,2.44,0,0,0,2.093-.955,5.6,5.6,0,0,0,0-5.53A2.442,2.442,0,0,0,1808.813,1011.254Zm1.488,5.955a1.808,1.808,0,0,1-2.982,0,5.048,5.048,0,0,1,0-4.475,1.815,1.815,0,0,1,2.982,0,5.1,5.1,0,0,1,0,4.475Z" fill="#fff"/>
      <path id="패스_67" data-name="패스 67" d="M1830.381,1014.694a2.144,2.144,0,0,0-.109-2.765,2.313,2.313,0,0,0-1.6-.505h-2.921v7.1h.817v-3.22h1.483l1.94,3.22h1.047l-1.952-3.24A2.01,2.01,0,0,0,1830.381,1014.694Zm-3.81-.09v-2.48h2.1a1.4,1.4,0,0,1,.992.325,1.219,1.219,0,0,1,.349.935,1.1,1.1,0,0,1-.328.905,1.461,1.461,0,0,1-1.013.315Z" fill="#fff"/>
      <path id="패스_68" data-name="패스 68" d="M1844.831,1012.124h2.18v5.7h-2.18v.7h5.254v-.7h-2.257v-5.7h2.257v-.7h-5.254Z" fill="#fff"/>
      <path id="패스_69" data-name="패스 69" d="M1869.348,1011.424H1864.1v7.1h.817v-6.4h1.4v6.4h.817v-6.4h1.4l.011,6.4h.817Z" fill="#fff"/>
    </g>
  </g>
</svg>
