<svg xmlns="http://www.w3.org/2000/svg" width="20" height="15" viewBox="0 0 20 15">
  <g id="icon" transform="translate(-720 -4202.488)">
    <path id="패스_15" data-name="패스 15" d="M740,4217.488c0-4.67-.762-8.8-3.095-11.365l.062-3.047a.575.575,0,0,0-.853-.515l-2.518,1.4a11.365,11.365,0,0,0-3.726-.576,11.049,11.049,0,0,0-3.665.572l-2.512-1.393a.575.575,0,0,0-.853.515l.063,3.11c-2.219,2.572-2.9,6.67-2.9,11.3Z" fill="#fbb040"/>
    <g id="그룹_23" data-name="그룹 23">
      <circle id="타원_19" data-name="타원 19" cx="0.5" cy="0.5" r="0.5" transform="translate(724 4208.988)" fill="#fff"/>
      <circle id="타원_20" data-name="타원 20" cx="0.5" cy="0.5" r="0.5" transform="translate(735 4208.988)" fill="#fff"/>
      <g id="그룹_22" data-name="그룹 22">
        <path id="패스_16" data-name="패스 16" d="M733.919,4211.36a7.386,7.386,0,0,1-2.418-.417,5.074,5.074,0,0,0-3.339.042,6.6,6.6,0,0,1-5.883-.9.125.125,0,1,1,.155-.2,6.34,6.34,0,0,0,5.646.859,5.334,5.334,0,0,1,3.5-.042,6.353,6.353,0,0,0,5.984-.819.122.122,0,0,1,.175.025.125.125,0,0,1-.024.175A6.182,6.182,0,0,1,733.919,4211.36Z" fill="#fff"/>
      </g>
    </g>
  </g>
</svg>
