<svg xmlns="http://www.w3.org/2000/svg" width="200" height="160" viewBox="0 0 200 160">
  <path id="패스_1" data-name="패스 1" d="M173.191,60.867l.433-22.022a18.385,18.385,0,0,0-8.755-16.2,17.655,17.655,0,0,0-18.036-.321L129.8,31.988c-19.115-5.347-42.383-5.364-61.345-.035L51.478,22.327a17.578,17.578,0,0,0-18.046.339,18.36,18.36,0,0,0-8.738,16.179L25.153,61.6C8.008,84.546,0,118.068,0,166.667V180H200V166.667C200,118.563,191.228,83.9,173.191,60.867ZM26.325,153.335C27.675,116.4,34.851,90.7,48.166,74.928l3.269-3.871-.374-18.471,14.708,8.333,5.512-1.953a82.416,82.416,0,0,1,27.59-4.349,84.7,84.7,0,0,1,28.159,4.4l5.494,1.918,14.733-8.35L146.9,70.675l3.491,3.941c14.19,15.954,21.824,41.759,23.267,78.719Z" transform="translate(0 -20)" fill="#2c3a54"/>
</svg>
