<svg xmlns="http://www.w3.org/2000/svg" width="64" height="64" viewBox="0 0 64 64">
  <g id="Js_icon" transform="translate(-928 -2538.939)">
    <path id="패스_32" data-name="패스 32" d="M982,2538.939H938a10,10,0,0,0-10,10v26.1h0v5h0v12.9a10,10,0,0,0,10,10h44a10,10,0,0,0,10-10v-44A10,10,0,0,0,982,2538.939Zm5,36.1H933v-26.1a5.006,5.006,0,0,1,5-5h44a5.006,5.006,0,0,1,5,5Z" fill="#2c3a54"/>
    <path id="패스_33" data-name="패스 33" d="M947.13,2551.338h-1.24v7.4h-1.24v1.46h1.24v7.439h1.24v1.24h2.68V2567.4h-2.46v-7.42h-1.24v-1.021h1.24v-7.42h2.46v-1.44h-2.68Z" fill="#2c3a54"/>
    <rect id="사각형_51" data-name="사각형 51" width="2.7" height="2.68" transform="translate(958.57 2561.198)" fill="#2c3a54"/>
    <rect id="사각형_52" data-name="사각형 52" width="2.7" height="2.68" transform="translate(958.57 2555.097)" fill="#2c3a54"/>
    <path id="패스_34" data-name="패스 34" d="M974.11,2558.738v-7.4h-1.239v-1.24H970.19v1.44h2.46v7.42h1.24v1.021h-1.24v7.42h-2.46v1.479h2.681v-1.24h1.239V2560.2h1.24v-1.46Z" fill="#2c3a54"/>
    <path id="패스_35" data-name="패스 35" d="M956.112,2581.7h-3.488a1.5,1.5,0,0,0-1.5,1.5v.464a1.5,1.5,0,0,0,1.5,1.5h1.46v6.42a2.213,2.213,0,0,1-.447,1.475,1.225,1.225,0,0,1-1.061.418,1.662,1.662,0,0,1-1.307-.616,1.5,1.5,0,0,0-2.609,1.011v.656a1.5,1.5,0,0,0,.528,1.143,5.026,5.026,0,0,0,3.324,1.269h.16a4.663,4.663,0,0,0,3.618-1.6,5.618,5.618,0,0,0,1.322-3.818V2583.2A1.5,1.5,0,0,0,956.112,2581.7Z" fill="#fff"/>
    <path id="패스_36" data-name="패스 36" d="M970.875,2589.885a5.009,5.009,0,0,0-1.144-1.536,10.315,10.315,0,0,0-1.273-.975q-.637-.414-1.271-.779a10.081,10.081,0,0,1-.933-.6c-.154-.115-.515-.407-.515-.716,0-.171.034-.2.046-.212a.454.454,0,0,1,.343-.112,1.18,1.18,0,0,1,.637.166,1.27,1.27,0,0,1,.464.5,1.5,1.5,0,0,0,2.815-.721v-.817a1.5,1.5,0,0,0-.325-.933,4.328,4.328,0,0,0-3.511-1.655,4.176,4.176,0,0,0-2.729.934,3.547,3.547,0,0,0-1.267,2.87v.112a3.784,3.784,0,0,0,.678,2.175,5.108,5.108,0,0,0,1.468,1.424q.629.4,1.37.87c.475.3.915.587,1.316.859a2.133,2.133,0,0,1,.612.644,1.32,1.32,0,0,1,.188.765,1.087,1.087,0,0,1-.365.917,1.582,1.582,0,0,1-1.1.4,1.951,1.951,0,0,1-1.146-.295,2.114,2.114,0,0,1-.721-.875,1.5,1.5,0,0,0-2.866.622v.864a1.5,1.5,0,0,0,.254.835,5.028,5.028,0,0,0,4.351,2.313,5.223,5.223,0,0,0,3.535-1.263,4.544,4.544,0,0,0,1.549-3.549v-.16A4.666,4.666,0,0,0,970.875,2589.885Z" fill="#fff"/>
  </g>
</svg>
