<svg xmlns="http://www.w3.org/2000/svg" width="50" height="37.5" viewBox="0 0 50 37.5">
  <g id="icon" transform="translate(-935 -5654.53)">
    <path id="패스_10" data-name="패스 10" d="M985,5692.03c0-11.675-1.9-21.995-7.737-28.414l.155-7.615a1.438,1.438,0,0,0-2.134-1.288l-6.295,3.491a28.422,28.422,0,0,0-9.314-1.44,27.607,27.607,0,0,0-9.163,1.431l-6.279-3.482A1.437,1.437,0,0,0,942.1,5656l.158,7.775c-5.549,6.43-7.258,16.674-7.258,28.254Z" fill="#fff"/>
    <g id="그룹_16" data-name="그룹 16">
      <circle id="타원_8" data-name="타원 8" cx="1.25" cy="1.25" r="1.25" transform="translate(945 5670.78)" fill="#9bb0ce"/>
      <circle id="타원_9" data-name="타원 9" cx="1.25" cy="1.25" r="1.25" transform="translate(972.5 5670.78)" fill="#9bb0ce"/>
      <g id="그룹_15" data-name="그룹 15">
        <path id="패스_11" data-name="패스 11" d="M969.8,5676.71a18.478,18.478,0,0,1-6.045-1.043,12.685,12.685,0,0,0-8.348.1,16.507,16.507,0,0,1-14.707-2.248.312.312,0,0,1,.388-.489,15.851,15.851,0,0,0,14.114,2.146,13.358,13.358,0,0,1,8.761-.1c2.515.888,9,2.47,14.96-2.046a.306.306,0,0,1,.438.061.312.312,0,0,1-.06.437A15.451,15.451,0,0,1,969.8,5676.71Z" fill="#9bb0ce"/>
      </g>
    </g>
  </g>
</svg>
