<svg xmlns="http://www.w3.org/2000/svg" width="64.001" height="64" viewBox="0 0 64.001 64">
  <g id="html_icon" transform="translate(-639.999 -2538.939)">
    <path id="패스_21" data-name="패스 21" d="M694,2538.939H650a10,10,0,0,0-10,10v26.1h0v5h0v12.9a10,10,0,0,0,10,10h44a10,10,0,0,0,10-10v-44A10,10,0,0,0,694,2538.939Zm5,36.1H645v-26.1a5.006,5.006,0,0,1,5-5h44a5.006,5.006,0,0,1,5,5Z" fill="#2c3a54"/>
    <path id="패스_22" data-name="패스 22" d="M659.588,2581.657h-.462a1.5,1.5,0,0,0-1.5,1.5v4.589h-4.2v-4.589a1.5,1.5,0,0,0-1.5-1.5h-.462a1.5,1.5,0,0,0-1.5,1.5v10.5a1.5,1.5,0,0,0,1.5,1.5h.462a1.5,1.5,0,0,0,1.5-1.5v-2.5h4.2v2.5a1.5,1.5,0,0,0,1.5,1.5h.462a1.5,1.5,0,0,0,1.5-1.5v-10.5A1.5,1.5,0,0,0,659.588,2581.657Z" fill="#fff"/>
    <path id="패스_23" data-name="패스 23" d="M668.995,2581.657h-5.277a1.5,1.5,0,0,0-1.5,1.5v.406a1.5,1.5,0,0,0,1.5,1.5h.922v8.594a1.5,1.5,0,0,0,1.5,1.5h.462a1.5,1.5,0,0,0,1.5-1.5v-8.594h.893a1.5,1.5,0,0,0,1.5-1.5v-.406A1.5,1.5,0,0,0,668.995,2581.657Z" fill="#fff"/>
    <path id="패스_24" data-name="패스 24" d="M683.893,2581.657h-.645a1.5,1.5,0,0,0-1.347.841l-3.382,6.925-3.372-6.924a1.5,1.5,0,0,0-1.349-.842h-.672a1.5,1.5,0,0,0-1.5,1.5v10.5a1.5,1.5,0,0,0,1.5,1.5h.42a1.5,1.5,0,0,0,1.5-1.5v-3.431l2.079,4.282a1.5,1.5,0,0,0,1.348.845h0a1.5,1.5,0,0,0,1.348-.842l2.107-4.316v3.462a1.5,1.5,0,0,0,1.5,1.5h.463a1.5,1.5,0,0,0,1.5-1.5v-10.5A1.5,1.5,0,0,0,683.893,2581.657Z" fill="#fff"/>
    <path id="패스_25" data-name="패스 25" d="M692.5,2591.75h-1.748v-8.593a1.5,1.5,0,0,0-1.5-1.5h-.462a1.5,1.5,0,0,0-1.5,1.5v10.5a1.5,1.5,0,0,0,1.5,1.5h3.71a1.5,1.5,0,0,0,1.5-1.5v-.407A1.5,1.5,0,0,0,692.5,2591.75Z" fill="#fff"/>
    <path id="_" data-name="&gt;" d="M689.744,2559.005v-1.831H688.08v-1.831h-1.831v-1.8h-1.664v-1.832H682.4v2.127h1.861v1.831h1.664v1.832h1.831v1.831h1.694v1.506h-1.694v1.832h-1.831v1.831h-1.664v1.8H682.4v2.186h2.186v-1.861h1.664v-1.832h1.831v-1.831h1.664v-1.8h1.832v-2.156Z" fill="#2c3a54"/>
    <path id="_2" data-name="/" d="M675.3,2553.769l-1.772.327.4,2.149-1.8.332.4,2.15-1.8.332.391,2.12-1.8.332.4,2.149-1.772.327.4,2.15-1.8.332.455,2.469,2.092-.386-.4-2.179,1.8-.332-.391-2.12,1.8-.332-.4-2.149,1.8-.332-.4-2.15,1.772-.327-.391-2.121,1.8-.332-.4-2.15,1.8-.332-.45-2.44-2.121.391Z" fill="#2c3a54"/>
    <path id="_3" data-name="&lt;" d="M659.474,2553.541H657.78v1.8h-1.831v1.831h-1.664v1.831h-1.861v2.156h1.861v1.8h1.664v1.831h1.831v1.832h1.694v1.861H661.6V2566.3h-1.832v-1.8h-1.664v-1.831h-1.831v-1.832H654.61v-1.506h1.664V2557.5h1.831v-1.832h1.664v-1.831H661.6v-2.127h-2.127Z" fill="#2c3a54"/>
  </g>
</svg>
