<svg xmlns="http://www.w3.org/2000/svg" width="64" height="64" viewBox="0 0 64 64">
  <g id="ai_icon" transform="translate(-1072 -2538.939)">
    <path id="패스_41" data-name="패스 41" d="M1126,2538.939h-44a10,10,0,0,0-10,10v26.1h0v5h0v12.9a10,10,0,0,0,10,10h44a10,10,0,0,0,10-10v-44A10,10,0,0,0,1126,2538.939Z" fill="#2c3a54"/>
    <path id="패스_42" data-name="패스 42" d="M1102.6,2564.137a1.5,1.5,0,0,0-1.348-.842h0a1.5,1.5,0,0,0-1.347.844l-5.984,12.288a1.5,1.5,0,0,0,1.349,2.157h.495a1.5,1.5,0,0,0,1.348-.841l1.828-3.736h4.551l1.858,3.743a1.5,1.5,0,0,0,1.344.834h.559a1.5,1.5,0,0,0,1.348-2.159Zm-1.988,6.406.6-1.232.608,1.232Z" fill="#fff"/>
    <rect id="사각형_53" data-name="사각형 53" width="3.527" height="15" rx="1.5" transform="translate(1110.708 2563.583)" fill="#fff"/>
  </g>
</svg>
