<svg xmlns="http://www.w3.org/2000/svg" width="64" height="64" viewBox="0 0 64 64">
  <g id="css_icon" transform="translate(-784 -2538.939)">
    <path id="패스_26" data-name="패스 26" d="M838,2538.939H794a10,10,0,0,0-10,10v26.1h0v5h0v12.9a10,10,0,0,0,10,10h44a10,10,0,0,0,10-10v-44A10,10,0,0,0,838,2538.939Zm5,36.1H789v-26.1a5.006,5.006,0,0,1,5-5h44a5.006,5.006,0,0,1,5,5Z" fill="#2c3a54"/>
    <path id="패스_27" data-name="패스 27" d="M810.172,2582.576a7.862,7.862,0,0,0-4-1.1,7.673,7.673,0,0,0-6.717,11.5,7.862,7.862,0,0,0,2.77,2.831,7.333,7.333,0,0,0,3.851,1.082h.176a7.424,7.424,0,0,0,3.954-1.119,1.5,1.5,0,0,0,.714-1.277v-.592a1.5,1.5,0,0,0-2.344-1.24,4.156,4.156,0,0,1-2.4.764,3.994,3.994,0,0,1-2.967-1.252,4.227,4.227,0,0,1,0-5.989,4.011,4.011,0,0,1,2.97-1.248,4.153,4.153,0,0,1,2.4.765,1.5,1.5,0,0,0,2.344-1.24v-.592A1.5,1.5,0,0,0,810.172,2582.576Z" fill="#fff"/>
    <path id="패스_28" data-name="패스 28" d="M820.8,2588.365a10.318,10.318,0,0,0-1.274-.974c-.425-.277-.847-.537-1.271-.78a10.1,10.1,0,0,1-.933-.6c-.154-.116-.515-.408-.515-.716,0-.171.035-.2.046-.212a.45.45,0,0,1,.343-.112,1.178,1.178,0,0,1,.636.165,1.279,1.279,0,0,1,.466.5,1.5,1.5,0,0,0,2.814-.722v-.816a1.5,1.5,0,0,0-.325-.933,4.327,4.327,0,0,0-3.511-1.655,4.18,4.18,0,0,0-2.729.933,3.555,3.555,0,0,0-1.267,2.871v.112a3.8,3.8,0,0,0,.678,2.175,5.11,5.11,0,0,0,1.469,1.423q.629.4,1.369.871c.475.3.915.586,1.316.859a2.13,2.13,0,0,1,.612.644,1.318,1.318,0,0,1,.188.764,1.084,1.084,0,0,1-.365.917,1.576,1.576,0,0,1-1.1.4,1.951,1.951,0,0,1-1.146-.3,2.113,2.113,0,0,1-.721-.875,1.5,1.5,0,0,0-2.865.622v.864a1.5,1.5,0,0,0,.253.835,5.028,5.028,0,0,0,4.351,2.312,5.223,5.223,0,0,0,3.535-1.262,4.545,4.545,0,0,0,1.549-3.549v-.16a4.669,4.669,0,0,0-.465-2.067A5.05,5.05,0,0,0,820.8,2588.365Z" fill="#fff"/>
    <path id="패스_29" data-name="패스 29" d="M833.107,2589.9a5.048,5.048,0,0,0-1.143-1.536,10.322,10.322,0,0,0-1.274-.974c-.425-.277-.847-.537-1.271-.78a10.084,10.084,0,0,1-.933-.6c-.154-.116-.515-.408-.515-.716,0-.171.035-.2.046-.212a.45.45,0,0,1,.343-.112,1.178,1.178,0,0,1,.636.165,1.279,1.279,0,0,1,.466.5,1.5,1.5,0,0,0,2.814-.722v-.816a1.5,1.5,0,0,0-.325-.933,4.327,4.327,0,0,0-3.511-1.655,4.18,4.18,0,0,0-2.729.933,3.555,3.555,0,0,0-1.267,2.871v.112a3.8,3.8,0,0,0,.678,2.175,5.11,5.11,0,0,0,1.469,1.423q.629.4,1.369.871c.475.3.915.586,1.316.859a2.131,2.131,0,0,1,.612.644,1.319,1.319,0,0,1,.188.764,1.084,1.084,0,0,1-.365.917,1.576,1.576,0,0,1-1.095.4,1.951,1.951,0,0,1-1.146-.3,2.113,2.113,0,0,1-.721-.875,1.5,1.5,0,0,0-2.865.622v.864a1.5,1.5,0,0,0,.253.835,5.028,5.028,0,0,0,4.351,2.312,5.224,5.224,0,0,0,3.535-1.262,4.545,4.545,0,0,0,1.549-3.549v-.16A4.668,4.668,0,0,0,833.107,2589.9Z" fill="#fff"/>
    <path id="패스_30" data-name="패스 30" d="M803.13,2551.338h-1.24v7.4h-1.24v1.46h1.24v7.439h1.24v1.24h2.68V2567.4h-2.46v-7.42h-1.24v-1.021h1.24v-7.42h2.46v-1.44h-2.68Z" fill="#2c3a54"/>
    <rect id="사각형_49" data-name="사각형 49" width="2.7" height="2.68" transform="translate(814.57 2561.198)" fill="#2c3a54"/>
    <rect id="사각형_50" data-name="사각형 50" width="2.7" height="2.68" transform="translate(814.57 2555.097)" fill="#2c3a54"/>
    <path id="패스_31" data-name="패스 31" d="M830.11,2558.738v-7.4H828.87v-1.24H826.19v1.44h2.46v7.42h1.24v1.021h-1.24v7.42h-2.46v1.479h2.681v-1.24h1.239V2560.2h1.24v-1.46Z" fill="#2c3a54"/>
  </g>
</svg>
