<?xml version="1.0" encoding="utf-8"?>
<!-- Generator: Adobe Illustrator 28.2.0, SVG Export Plug-In . SVG Version: 6.00 Build 0)  -->
<svg version="1.1" id="Layer_1" xmlns="http://www.w3.org/2000/svg" xmlns:xlink="http://www.w3.org/1999/xlink" x="0px" y="0px"
	 viewBox="0 0 200 200" style="enable-background:new 0 0 200 200;" xml:space="preserve">
<style type="text/css">
	.st0{fill:#FFAA32;}
</style>
<g>
	<path class="st0" d="M169.89,60.86c-4.75,2.06-9.86,3.46-15.21,4.08c5.47-3.21,9.67-8.28,11.65-14.33
		c-5.12,2.97-10.79,5.12-16.82,6.28c-4.83-5.03-11.72-8.17-19.34-8.17c-14.63,0-26.49,11.59-26.49,25.89c0,2.03,0.23,4,0.68,5.9
		c-22.02-1.08-41.54-11.39-54.6-27.05c-2.28,3.83-3.59,8.27-3.59,13.02c0,8.98,4.68,16.9,11.79,21.55c-4.34-0.14-8.43-1.3-12-3.24
		c0,0.11,0,0.22,0,0.33c0,12.54,9.13,23.01,21.25,25.39c-2.22,0.59-4.57,0.91-6.98,0.91c-1.71,0-3.37-0.16-4.99-0.46
		c3.37,10.28,13.16,17.77,24.75,17.98C70.93,135.87,59.5,140,47.09,140c-2.14,0-4.25-0.12-6.32-0.36
		c11.72,7.34,25.65,11.63,40.61,11.63c48.73,0,75.37-39.45,75.37-73.66c0-1.12-0.03-2.24-0.08-3.35
		C161.85,70.61,166.34,66.05,169.89,60.86z"/>
	<g>
		<path class="st0" d="M174.67,200H25.33C11.36,200,0,188.64,0,174.67V25.33C0,11.36,11.36,0,25.33,0h149.33
			C188.64,0,200,11.36,200,25.33v149.33C200,188.64,188.64,200,174.67,200z M25.33,13.33c-6.62,0-12,5.38-12,12v149.33
			c0,6.62,5.38,12,12,12h149.33c6.62,0,12-5.38,12-12V25.33c0-6.62-5.38-12-12-12H25.33z"/>
	</g>
</g>
</svg>
