<?xml version="1.0" encoding="utf-8"?>
<!-- Generator: Adobe Illustrator 28.2.0, SVG Export Plug-In . SVG Version: 6.00 Build 0)  -->
<svg version="1.1" id="Layer_1" xmlns="http://www.w3.org/2000/svg" xmlns:xlink="http://www.w3.org/1999/xlink" x="0px" y="0px"
	 viewBox="0 0 200 200" style="enable-background:new 0 0 200 200;" xml:space="preserve">
<style type="text/css">
	.st0{fill:#FFAA32;}
</style>
<g>
	<g>
		<path class="st0" d="M174.67,200H25.33C11.36,200,0,188.64,0,174.67V25.33C0,11.36,11.36,0,25.33,0h149.33
			C188.64,0,200,11.36,200,25.33v149.33C200,188.64,188.64,200,174.67,200z M25.33,13.33c-6.62,0-12,5.38-12,12v149.33
			c0,6.62,5.38,12,12,12h149.33c6.62,0,12-5.38,12-12V25.33c0-6.62-5.38-12-12-12H25.33z"/>
	</g>
	<g>
		<path class="st0" d="M100,161.16c-33.72,0-61.16-27.44-61.16-61.16S66.28,38.84,100,38.84c33.72,0,61.16,27.44,61.16,61.16
			S133.72,161.16,100,161.16z M100,57.33c-23.53,0-42.67,19.14-42.67,42.67s19.14,42.67,42.67,42.67
			c23.53,0,42.67-19.14,42.67-42.67S123.53,57.33,100,57.33z"/>
	</g>
	<circle class="st0" cx="160.96" cy="40.96" r="10.47"/>
</g>
</svg>
