<svg xmlns="http://www.w3.org/2000/svg" width="120" height="80" viewBox="0 0 120 80">
  <g id="icon_food" transform="translate(-623 -4120.028)">
    <rect id="사각형_3" data-name="사각형 3" width="120" height="6.032" rx="2.273" transform="translate(623 4193.997)" fill="#ffaa32"/>
    <path id="패스_39" data-name="패스 39" d="M690.769,4128.547c.014-.193.023-.386.023-.582a7.793,7.793,0,1,0-15.584,0c0,.2.009.4.023.59-25.174,3.839-44.641,26.03-44.75,52.675a54.792,54.792,0,0,0,.72,9.1,2.092,2.092,0,0,0,2.057,1.762h99.483a2.1,2.1,0,0,0,2.058-1.766,54.791,54.791,0,0,0,.72-8.869C735.519,4154.6,716.091,4132.371,690.769,4128.547Zm-17.535,9.992c-12.832,3.394-22.032,9.692-26.546,22.124a87.067,87.067,0,0,0-4.4,18.195,1.361,1.361,0,0,1-1.193,1.506,1.3,1.3,0,0,1-.242.005,1.357,1.357,0,0,1-1.237-1.218,59.394,59.394,0,0,1,3.018-21.027c3.345-9.284,10.986-19.459,30.213-22.294a1.348,1.348,0,0,1,1.523,1.159A1.425,1.425,0,0,1,673.234,4138.539Zm14.431-10.362c-1.609-.144-3.237-.218-4.884-.212q-2.247.011-4.446.214c0-.072-.011-.142-.011-.214a4.676,4.676,0,1,1,9.351,0C687.675,4128.037,687.668,4128.106,687.665,4128.177Z" fill="#ffaa32"/>
  </g>
</svg>
