<?xml version="1.0" encoding="utf-8"?>
<!-- Generator: Adobe Illustrator 28.2.0, SVG Export Plug-In . SVG Version: 6.00 Build 0)  -->
<svg version="1.1" id="Layer_1" xmlns="http://www.w3.org/2000/svg" xmlns:xlink="http://www.w3.org/1999/xlink" x="0px" y="0px"
	 viewBox="0 0 200 200" style="enable-background:new 0 0 200 200;" xml:space="preserve">
<style type="text/css">
	.st0{fill:#FFAA32;}
</style>
<g>
	<g>
		<path class="st0" d="M174.67,200H25.33C11.36,200,0,188.64,0,174.67V25.33C0,11.36,11.36,0,25.33,0h149.33
			C188.64,0,200,11.36,200,25.33v149.33C200,188.64,188.64,200,174.67,200z M25.33,13.33c-6.62,0-12,5.38-12,12v149.33
			c0,6.62,5.38,12,12,12h149.33c6.62,0,12-5.38,12-12V25.33c0-6.62-5.38-12-12-12H25.33z"/>
	</g>
	<path id="Facebook_5_" class="st0" d="M82.93,62.99c0,3.25,0,17.74,0,17.74h-13v21.7h13v59.54h26.7v-59.54h17.92
		c0,0,1.68-10.41,2.49-21.78c-2.33,0-20.31,0-20.31,0s0-12.62,0-14.83c0-2.22,2.91-5.2,5.79-5.2c2.87,0,8.93,0,14.55,0
		c0-2.95,0-13.16,0-22.59c-7.5,0-16.02,0-19.78,0C82.27,38.03,82.93,59.75,82.93,62.99z"/>
</g>
</svg>
