<?xml version="1.0" encoding="utf-8"?>
<!-- Generator: Adobe Illustrator 28.2.0, SVG Export Plug-In . SVG Version: 6.00 Build 0)  -->
<svg version="1.1" id="Layer_1" xmlns="http://www.w3.org/2000/svg" xmlns:xlink="http://www.w3.org/1999/xlink" x="0px" y="0px"
	 viewBox="0 0 200 200" style="enable-background:new 0 0 200 200;" xml:space="preserve">
<style type="text/css">
	.st0{fill:#FFAA32;}
</style>
<path id="LOGO_2" class="st0" d="M185.35,0.18c-47.08,0-91.31,19.78-124.69,55.71c-0.16,0.15-0.32,0.3-0.48,0.45
	c-0.3,0.29-0.57,0.61-0.81,0.94c-15.7,17.24-28.05,37.15-36.69,58.79c-1.16,2.34-2.13,4.77-2.87,7.29
	c-0.09,0.29-0.14,0.58-0.19,0.87C12.06,145.87,8.1,169.08,8.1,192.95c0,0.7,0.11,1.38,0.32,2.02c0.53,1.95,1.94,3.63,3.97,4.41
	c0.77,0.3,1.57,0.44,2.35,0.44c2.63,0,5.11-1.6,6.11-4.2c5.72-14.87,14.02-27.91,24.09-38.74c10.66-8.77,31.32-5.4,45.8,4.21
	c3.01,2,7.07,1.18,9.07-1.84c2-3.01,1.18-7.07-1.84-9.07c-7.46-4.95-16.09-8.55-24.77-10.32c21.15-3.26,29.99,7.84,37.93,17.82
	c1.29,1.62,3.2,2.47,5.13,2.47c1.43,0,2.87-0.46,4.07-1.42c2.83-2.25,3.3-6.37,1.05-9.2c-5.36-6.73-12.73-16-25.01-20.56
	c17,0.6,31.67,10.98,41.1,22.78c1.29,1.62,3.2,2.46,5.12,2.46c1.43,0,2.87-0.47,4.08-1.43c2.83-2.26,3.29-6.37,1.03-9.2
	c-7.65-9.58-16.92-17.01-27.09-21.77c11.79-0.2,23.69,1.79,35.18,6.21c3.37,1.29,7.16-0.39,8.46-3.76c1.3-3.37-0.39-7.16-3.76-8.46
	c-28.48-10.95-59.82-9.29-88.35,4.66c-0.1,0.04-0.19,0.07-0.29,0.11c-0.32,0.14-0.62,0.3-0.91,0.48
	c-13.42,6.74-25.44,15.85-35.64,26.85c-1.27,1.18-2.46,2.47-3.56,3.89c-0.14,0.18-0.27,0.37-0.38,0.56
	c-2.76,3.26-5.36,6.67-7.81,10.22c2.3-14.75,6.25-28.89,11.64-42.19c11.75-21.02,45.84-27.77,73.93-21.53
	c3.53,0.78,7.03-1.44,7.81-4.97c0.78-3.53-1.44-7.03-4.97-7.81c-18.81-4.18-39.16-3.19-55.85,2.71c-2.07,0.73-4.06,1.53-5.98,2.4
	c0.12-0.19,0.24-0.38,0.37-0.58c0.47-0.23,0.93-0.51,1.35-0.86c40.77-33.89,66.1-18.99,86.46-7.01c3.12,1.83,7.13,0.79,8.96-2.32
	c1.83-3.12,0.79-7.13-2.32-8.96c-12.91-7.6-25.84-14.5-41.95-15.52C94,55.36,84.98,56.74,75.82,60.1c31.43-24.39,70.57-17.01,97.9-1
	c3.12,1.83,7.13,0.78,8.96-2.34c1.83-3.12,0.78-7.13-2.34-8.96c-19.39-11.36-40.39-17.05-60.68-16.44
	c-2.33,0.07-4.63,0.23-6.91,0.47c21.9-11.87,46.55-18.56,72.61-18.56c3.61,0,6.55-2.93,6.55-6.55S188.97,0.18,185.35,0.18z"/>
</svg>
