<svg xmlns="http://www.w3.org/2000/svg" width="120" height="60" viewBox="0 0 120 60">
  <g id="icon_bone" transform="translate(-993 -4130.028)">
    <path id="패스_40" data-name="패스 40" d="M1111.644,4164.89h0a31.813,31.813,0,0,0-3.077-6.005,17.783,17.783,0,0,0,3.637-14.059,18.325,18.325,0,0,0-9.831-13.271c-7.3-3.579-15.309-.194-20.747,3.276a31.393,31.393,0,0,0-9.2,8.649c-7.182-.377-14.543-.291-21.672-.209-7.048.082-14.326.166-21.386-.2-2.17-5.516-7.209-11.473-13.709-12.273-5.481-.675-11.342,1.35-16.079,5.554-4.781,4.239-6.926,9.87-5.885,15.448a24.206,24.206,0,0,0,3.088,7.9,23.94,23.94,0,0,0-3.742,10.559c-.421,5.614,2.548,11.429,7.94,15.555a18.327,18.327,0,0,0,20.209,1.46,23.43,23.43,0,0,0,9.353-9.948l43.9-.329h.1a23.037,23.037,0,0,0,11.408,11.464,18.637,18.637,0,0,0,7.569,1.564,20.95,20.95,0,0,0,13.68-5.142C1112.784,4180,1114.49,4172.333,1111.644,4164.89Zm-110.465,6.169a13.282,13.282,0,0,1,1.141-4.267c.7.72,1.437,1.441,2.212,2.157.331.3.666.6,1.012.889a4.073,4.073,0,0,0,5.761-.546,3.77,3.77,0,0,0-.425-5.568,31.989,31.989,0,0,1-7.857-9.623,10.313,10.313,0,0,1-1.194-7.017c.027-.114.047-.2.06-.262.03-.068.069-.162.121-.292a11.265,11.265,0,0,1,.589-1.217,8.955,8.955,0,0,1,1.478-2.008,13.156,13.156,0,0,1,9.6-4.614,8.616,8.616,0,0,1,4.744,1.546c1.453,1.021,2.519,3.733,3.376,5.911.336.856.654,1.664.986,2.368a4.282,4.282,0,0,0,3.93,2.595c8,.46,16.3.284,24.323.114,7.976-.169,16.222-.344,24.112.11a4.036,4.036,0,0,0,3.609-2.266,3.834,3.834,0,0,1,.577-.936c.108-.134.231-.287.393-.508a25.017,25.017,0,0,1,5.211-5.247c1.9-1.421,8.482-5.889,13.595-3.707,3.771,1.611,5.116,5.307,5.582,7.367a9.1,9.1,0,0,1-1.188,6.581,20.661,20.661,0,0,0-2.465-1.686,3.688,3.688,0,0,0-5.181,1.276,4.137,4.137,0,0,0,1.251,5.757c.051.037.119.087.213.153a19.683,19.683,0,0,1,3.2,2.915,4,4,0,0,0,.351.416,22.232,22.232,0,0,1,2.865,4.443c2.554,5.206,2.092,9.572-1.373,12.978h0a12.052,12.052,0,0,1-12.746,2.146,14.561,14.561,0,0,1-7.708-9.26,4.118,4.118,0,0,0-4.067-2.807h-.033l-49.462.371-.122,0a4.018,4.018,0,0,0-3.575,2.393,17.676,17.676,0,0,1-6.011,7.98,9.949,9.949,0,0,1-11.862-.075C1003.531,4177.675,1000.939,4174.273,1001.179,4171.059Z" fill="#ffaa32"/>
  </g>
</svg>
