<?xml version="1.0" encoding="utf-8"?>
<!-- Generator: Adobe Illustrator 28.2.0, SVG Export Plug-In . SVG Version: 6.00 Build 0)  -->
<svg version="1.1" id="Layer_1" xmlns="http://www.w3.org/2000/svg" xmlns:xlink="http://www.w3.org/1999/xlink" x="0px" y="0px"
	 viewBox="0 0 200 200" style="enable-background:new 0 0 200 200;" xml:space="preserve">
<style type="text/css">
	.st0{fill:#FFAA32;}
</style>
<g>
	<path class="st0" d="M99.99,99.91c16.74,0,30.31-13.57,30.31-30.3c0-16.74-13.56-30.31-30.31-30.31
		c-16.74,0-30.29,13.57-30.29,30.31C69.7,86.34,83.26,99.91,99.99,99.91z"/>
	<path class="st0" d="M124.75,97.26c-6.58,5.89-15.25,9.48-24.76,9.48c-9.5,0-18.18-3.59-24.74-9.48
		c-17.65,9.38-29.77,28.46-29.9,50.52h109.31C154.52,125.72,142.4,106.64,124.75,97.26z"/>
	<path class="st0" d="M100,0C44.86,0,0,44.86,0,100s44.86,100,100,100c55.14,0,100-44.86,100-100S155.14,0,100,0z M100,178.47
		c-43.27,0-78.47-35.2-78.47-78.47S56.73,21.53,100,21.53s78.48,35.2,78.48,78.47S143.27,178.47,100,178.47z"/>
</g>
</svg>
