<svg xmlns="http://www.w3.org/2000/svg" width="120" height="75" viewBox="0 0 120 75">
  <g id="icon_tiket" transform="translate(-253 -4122.528)">
    <path id="패스_29" data-name="패스 29" d="M364.137,4122.528H343.243v1.391a4.684,4.684,0,0,1-9.349,0v-1.391H261.862a8.75,8.75,0,0,0-8.862,8.613v57.775a8.75,8.75,0,0,0,8.862,8.612h72.032v-1.391a4.684,4.684,0,0,1,9.349,0v1.391h20.894a8.75,8.75,0,0,0,8.863-8.612v-57.775A8.751,8.751,0,0,0,364.137,4122.528Zm3.171,8.613v57.775a3.066,3.066,0,0,1-3.171,2.942H347.95a10.5,10.5,0,0,0-18.762,0H261.862a3.066,3.066,0,0,1-3.171-2.942v-57.775a3.065,3.065,0,0,1,3.171-2.942h67.326a10.505,10.505,0,0,0,18.762,0h16.187A3.066,3.066,0,0,1,367.308,4131.141Z" fill="#ffaa32"/>
    <path id="패스_30" data-name="패스 30" d="M340.772,4138.1a2.417,2.417,0,0,0-.534-.763,2.417,2.417,0,0,0-2.115-.629,2.5,2.5,0,0,0-.46.133,2.467,2.467,0,0,0-.42.219,2.6,2.6,0,0,0-.366.293,2.337,2.337,0,0,0-.292.348,2.651,2.651,0,0,0-.239.432,2.452,2.452,0,0,0-.189.934,2.265,2.265,0,0,0,.049.478,2.412,2.412,0,0,0,.155.489,2.477,2.477,0,0,0,.214.384,2.123,2.123,0,0,0,.3.356,2.435,2.435,0,0,0,.393.315,2.609,2.609,0,0,0,.422.213,2.29,2.29,0,0,0,.415.12,2.339,2.339,0,0,0,.465.046,2.268,2.268,0,0,0,.442-.042,2.4,2.4,0,0,0,.471-.138,2.56,2.56,0,0,0,.4-.208,2.222,2.222,0,0,0,.355-.282,2.4,2.4,0,0,0,.742-1.731,2.162,2.162,0,0,0-.048-.472A2.4,2.4,0,0,0,340.772,4138.1Z" fill="#ffaa32"/>
    <path id="패스_31" data-name="패스 31" d="M338.567,4153.69a2.4,2.4,0,1,0,2.409,2.4A2.408,2.408,0,0,0,338.567,4153.69Z" fill="#ffaa32"/>
    <path id="패스_32" data-name="패스 32" d="M338.567,4145.179a2.4,2.4,0,1,0,2.409,2.4A2.408,2.408,0,0,0,338.567,4145.179Z" fill="#ffaa32"/>
    <path id="패스_33" data-name="패스 33" d="M338.567,4162.2a2.4,2.4,0,1,0,2.409,2.4A2.408,2.408,0,0,0,338.567,4162.2Z" fill="#ffaa32"/>
    <path id="패스_34" data-name="패스 34" d="M338.567,4170.711a2.4,2.4,0,1,0,2.409,2.4A2.408,2.408,0,0,0,338.567,4170.711Z" fill="#ffaa32"/>
    <path id="패스_35" data-name="패스 35" d="M339.873,4179.6a2.463,2.463,0,0,0-.428-.219,2.5,2.5,0,0,0-.424-.122,2.427,2.427,0,0,0-.908,0,2.575,2.575,0,0,0-.441.129,2.313,2.313,0,0,0-.407.207,2.062,2.062,0,0,0-.354.277,2.18,2.18,0,0,0-.326.378,2.733,2.733,0,0,0-.24.437,2.436,2.436,0,0,0-.188.93,2.228,2.228,0,0,0,.049.477,2.51,2.51,0,0,0,.155.49,2.413,2.413,0,0,0,.21.378,2.152,2.152,0,0,0,.328.388,2.312,2.312,0,0,0,.37.29,2.715,2.715,0,0,0,.418.212,2.334,2.334,0,0,0,.415.12,2.376,2.376,0,0,0,.465.046,2.268,2.268,0,0,0,.442-.042,2.47,2.47,0,0,0,.471-.138,2.6,2.6,0,0,0,.377-.194,2.087,2.087,0,0,0,.367-.285,2.25,2.25,0,0,0,.324-.377,2.521,2.521,0,0,0,.24-.436,2.418,2.418,0,0,0,.188-.929,2.358,2.358,0,0,0-.7-1.691A1.993,1.993,0,0,0,339.873,4179.6Z" fill="#ffaa32"/>
    <path id="패스_36" data-name="패스 36" d="M268.088,4154.542h36.1a4.28,4.28,0,1,0,0-8.559h-36.1a4.28,4.28,0,1,0,0,8.559Z" fill="#ffaa32"/>
    <path id="패스_37" data-name="패스 37" d="M322.986,4161.871H265.832a2.113,2.113,0,0,0,0,4.226h57.154a2.113,2.113,0,0,0,0-4.226Z" fill="#ffaa32"/>
    <path id="패스_38" data-name="패스 38" d="M314.263,4170.248H265.832a2.113,2.113,0,0,0,0,4.226h48.431a2.113,2.113,0,0,0,0-4.226Z" fill="#ffaa32"/>
  </g>
</svg>
