<?xml version="1.0" encoding="utf-8"?>
<!-- Generator: Adobe Illustrator 24.0.0, SVG Export Plug-In . SVG Version: 6.00 Build 0)  -->
<svg version="1.1" id="그룹_8" xmlns="http://www.w3.org/2000/svg" xmlns:xlink="http://www.w3.org/1999/xlink" x="0px" y="0px"
	 viewBox="0 0 60 45" style="enable-background:new 0 0 60 45;" xml:space="preserve">
<style type="text/css">
	.st0{fill:#FF9500;}
</style>
<path id="패스_6" class="st0" d="M57.7,0H2.3C1,0,0,1,0,2.3v34.5C0,38,1,39,2.3,39c0,0,0,0,0,0h6c0,0,0-0.1,0-0.1
	c0-3.7,3-6.8,6.8-6.8s6.8,3,6.8,6.8c0,0.1,0,0.1,0,0.1h16.5c0,0,0-0.1,0-0.1c0-3.7,3-6.8,6.8-6.8s6.8,3,6.8,6.8c0,0.1,0,0.1,0,0.1h6
	c1.2,0,2.3-1,2.3-2.3c0,0,0,0,0,0V2.3C60,1,59,0,57.7,0C57.7,0,57.7,0,57.7,0z M3.5,8c0-1.2,1-2.3,2.3-2.3L22,5.4
	c1.2,0,2.3,1,2.3,2.3l0,11.1c0,1.2-1,2.3-2.3,2.3c0,0,0,0,0,0L5.8,21.4c-1.2,0-2.3-1-2.3-2.3 M40.5,18.7c0,1.2-1,2.3-2.3,2.3
	c0,0,0,0,0,0h-8.7c-1.2,0-2.3-1-2.3-2.3c0,0,0,0,0,0V7.7c0-1.2,1-2.3,2.3-2.3h8.7c1.2,0,2.3,1,2.3,2.3V18.7z M56.7,18.7
	c0,1.2-1,2.3-2.3,2.3c0,0,0,0,0,0h-8.7c-1.2,0-2.3-1-2.3-2.3c0,0,0,0,0,0V7.7c0-1.2,1-2.3,2.3-2.3h8.7c1.2,0,2.3,1,2.3,2.3V18.7z"/>
<circle id="타원_2" class="st0" cx="15" cy="39" r="6"/>
<circle id="타원_3" class="st0" cx="45" cy="39" r="6"/>
</svg>
