<svg id="그룹_11" data-name="그룹 11" xmlns="http://www.w3.org/2000/svg" width="63" height="40.065" viewBox="0 0 63 40.065">
  <path id="패스_7" data-name="패스 7" d="M773.394,4897.64v1.185a1.68,1.68,0,0,0,1.68,1.68h8.074c0-.05,0-.1,0-.15a6.719,6.719,0,0,1,.57-2.715Z" transform="translate(-773.394 -4866.275)" fill="#ff9500"/>
  <path id="패스_8" data-name="패스 8" d="M826.644,4900.355c0,.051,0,.1,0,.15h8.074a1.68,1.68,0,0,0,1.68-1.68v-1.185h-10.32A6.734,6.734,0,0,1,826.644,4900.355Z" transform="translate(-773.394 -4866.275)" fill="#ff9500"/>
  <path id="패스_9" data-name="패스 9" d="M834.714,4879.5h-11.97v-11.55a1.68,1.68,0,0,0-1.68-1.68h-32.34a1.68,1.68,0,0,0-1.68,1.68v11.55h-11.97a1.68,1.68,0,0,0-1.68,1.68v14.955h11.23a6.745,6.745,0,0,1,10.54,0h19.46a6.745,6.745,0,0,1,10.54,0h11.23v-14.955A1.68,1.68,0,0,0,834.714,4879.5Z" transform="translate(-773.394 -4866.275)" fill="#ff9500"/>
  <path id="패스_10" data-name="패스 10" d="M796.074,4897.64a6.734,6.734,0,0,1,.57,2.715c0,.051,0,.1,0,.15h16.508c0-.05,0-.1,0-.15a6.719,6.719,0,0,1,.57-2.715Z" transform="translate(-773.394 -4866.275)" fill="#ff9500"/>
  <path id="패스_11" data-name="패스 11" d="M794.175,4896.14a6.037,6.037,0,1,0,1.072,1.5A5.974,5.974,0,0,0,794.175,4896.14Z" transform="translate(-773.394 -4866.275)" fill="#ff9500"/>
  <path id="패스_12" data-name="패스 12" d="M824.175,4896.14a6.037,6.037,0,1,0,1.072,1.5A5.974,5.974,0,0,0,824.175,4896.14Z" transform="translate(-773.394 -4866.275)" fill="#ff9500"/>
</svg>
