<?xml version="1.0" encoding="utf-8"?>
<!-- Generator: Adobe Illustrator 28.2.0, SVG Export Plug-In . SVG Version: 6.00 Build 0)  -->
<svg version="1.1" id="Layer_1" xmlns="http://www.w3.org/2000/svg" xmlns:xlink="http://www.w3.org/1999/xlink" x="0px" y="0px"
	 viewBox="0 0 500 500" style="enable-background:new 0 0 500 500;" xml:space="preserve">
<style type="text/css">
	.st0{fill:#FFFFFF;}
</style>
<g id="icon_5_">
	<path d="M500,437.5c0-116.75-19.04-219.96-77.37-284.14l1.55-76.16c0.23-11.09-11.64-18.25-21.33-12.88l-62.95,34.91
		c-26.81-9.23-57.53-14.41-93.14-14.41c-35.15,0-65.36,5.15-91.63,14.31L92.33,64.32C82.64,58.95,70.77,66.12,71,77.2l1.58,77.75
		C17.09,219.25,0,321.7,0,437.5H500z"/>
	<circle class="st0" cx="112.5" cy="237.5" r="12.5"/>
	<circle class="st0" cx="387.5" cy="237.5" r="12.5"/>
	<g>
		<path class="st0" d="M347.98,284.29c-26.17,0-48.01-6.03-60.45-10.42c-25.71-9.11-55.36-8.72-83.48,1.05
			c-81.52,28.27-146.42-21.95-147.07-22.49c-1.35-1.05-1.57-3.03-0.51-4.37c1.11-1.37,3.06-1.59,4.39-0.51
			c0.62,0.49,62.94,48.63,141.14,21.46c29.49-10.23,60.58-10.55,87.61-1.05c25.15,8.89,90.01,24.71,149.6-20.46
			c1.38-1.07,3.36-0.81,4.38,0.61c1.04,1.37,0.77,3.32-0.6,4.37C410.55,277.04,376.66,284.29,347.98,284.29z"/>
	</g>
</g>
</svg>
