<svg xmlns="http://www.w3.org/2000/svg" width="150" height="150" viewBox="0 0 150 150">
  <g id="btn_4" transform="translate(-1314.136 -2955.196)">
    <path id="패스_79" data-name="패스 79" d="M1389.14,2955.2a75,75,0,1,0,75,75A75.087,75.087,0,0,0,1389.14,2955.2Zm0,144.6a69.6,69.6,0,1,1,69.6-69.6A69.676,69.676,0,0,1,1389.14,3099.8Z" fill="#284646"/>
    <g id="그룹_53" data-name="그룹 53">
      <path id="패스_80" data-name="패스 80" d="M1395.128,3007.159a10.09,10.09,0,1,0-6.159-12.872,10.09,10.09,0,0,0,6.159,12.872" fill="#284646"/>
      <path id="패스_81" data-name="패스 81" d="M1375.814,3026.659l11.258-31.917a5.8,5.8,0,0,0-3.53-7.377l-5.9-2.08a5.8,5.8,0,0,0-7.377,3.528l-11.258,31.919a5.8,5.8,0,0,0,3.529,7.375l5.9,2.081a5.8,5.8,0,0,0,7.376-3.529" fill="#284646"/>
      <path id="패스_82" data-name="패스 82" d="M1415.51,3025.1l-1.092-.414v-1.438a1.9,1.9,0,0,0-1.891-1.891h-.577a1.9,1.9,0,0,0-1.879,1.684l-6.99-2.646c-.052-.081-.105-.161-.165-.239l-7.172-9.357a3.584,3.584,0,0,0-.343-.381,7.153,7.153,0,0,0-12.5,1.876l-3.26,9.244-4.3,12.186a7.129,7.129,0,0,0,.031,4.828l-8.755,24.7a4.056,4.056,0,0,0,7.645,2.71l7.947-22.419,8.966,5.241,1.9,16.688a3.782,3.782,0,1,0,7.515-.857l-2.094-18.363c-.013-.116-.034-.231-.057-.343a3.779,3.779,0,0,0-1.826-2.706l-7.824-4.573c.019-.047.041-.092.058-.14l5.388-17.857,2.982,3.89c.025.033.053.062.078.093a3.583,3.583,0,0,0,2.064,2.048l10.7,4.05v36.221a1.9,1.9,0,0,0,1.891,1.89h.577a1.9,1.9,0,0,0,1.891-1.89v-34.9a3.587,3.587,0,0,0,1.092-6.939Z" fill="#284646"/>
      <path id="패스_83" data-name="패스 83" d="M1376.606,3070.607h-2.974a.484.484,0,1,1,0-.968h2.974a.484.484,0,1,1,0,.968" fill="#284646"/>
      <path id="패스_84" data-name="패스 84" d="M1370.946,3070.607h-12.61a.484.484,0,1,1,0-.968h12.61a.484.484,0,1,1,0,.968" fill="#284646"/>
      <path id="패스_85" data-name="패스 85" d="M1423.775,3070.607H1420.8a.484.484,0,1,1,0-.968h2.973a.484.484,0,1,1,0,.968" fill="#284646"/>
      <path id="패스_86" data-name="패스 86" d="M1418.116,3070.463h-12.61a.339.339,0,1,1,0-.678h12.61a.339.339,0,1,1,0,.678" fill="#284646"/>
      <path id="패스_87" data-name="패스 87" d="M1379.079,3075.436h-6.038a.509.509,0,0,1,0-1.018h6.038a.509.509,0,1,1,0,1.018" fill="#284646"/>
      <path id="패스_88" data-name="패스 88" d="M1431.375,3075.436h-31.059a.509.509,0,1,1,0-1.018h31.059a.509.509,0,0,1,0,1.018" fill="#284646"/>
      <path id="패스_89" data-name="패스 89" d="M1382.889,3070.251l3.912.469a1.986,1.986,0,0,0,1.484-.431l2.715-2.208a1.982,1.982,0,0,1,3.151.978l.65,2.21a1.977,1.977,0,0,0,.433.769l.076.087a1.98,1.98,0,0,1-1.467,3.311h-11.374a1.982,1.982,0,0,1-1.96-2.275l.185-1.235a1.983,1.983,0,0,1,2.2-1.675" fill="#284646"/>
      <path id="패스_90" data-name="패스 90" d="M1347.9,3067.875l2.469.3a1.254,1.254,0,0,0,.937-.272l1.714-1.394a1.251,1.251,0,0,1,1.988.617l.41,1.4a1.252,1.252,0,0,0,.273.486l.048.054a1.25,1.25,0,0,1-.926,2.09h-7.177a1.251,1.251,0,0,1-1.238-1.436l.117-.779a1.251,1.251,0,0,1,1.385-1.057" fill="#284646"/>
    </g>
  </g>
</svg>
