<svg xmlns="http://www.w3.org/2000/svg" width="350" height="140" viewBox="0 0 350 140">
  <g id="LOGO" transform="translate(-785 -5510)">
    <g id="txt">
      <g id="bottom">
        <path id="패스_1" data-name="패스 1" d="M1044.009,5643.625v-59.187h-9.716v49.194h-17.78l-.072-49.194h-9.715l.077,59.187Z" fill="#fff"/>
        <path id="패스_2" data-name="패스 2" d="M984.328,5643.626l18.185-59.187h-9.951l-4.389,14.528H970.446l-4.389-14.528h-9.951l18.185,59.187Zm.87-34.667-5.889,19.534-5.888-19.534Z" fill="#fff"/>
        <path id="패스_3" data-name="패스 3" d="M960.888,5633.633H944.335v-49.194H934.188v49.194H917.2v9.993h43.685Z" fill="#fff"/>
        <path id="패스_4" data-name="패스 4" d="M883.231,5594.445l10.007.063a8.176,8.176,0,0,1,5.6,1.772,5.628,5.628,0,0,1,1.813,4.527l-.076,42.819h9.72l.071-43.661a15.459,15.459,0,0,0-2.139-8.082,14.87,14.87,0,0,0-5.774-5.5,17.062,17.062,0,0,0-8.206-1.939H873.521l-.077,59.187h9.715Z" fill="#fff"/>
        <path id="패스_5" data-name="패스 5" d="M830.743,5614.694c-2.322,2.928-3.5,6.817-3.5,11.56,0,5.486,1.465,9.8,4.355,12.832,2.88,3.012,6.935,4.54,12.055,4.54H865.1v-59.187h-9.715v24.751h-6.356l-12.81-24.751H824.378l13.238,25.6A13.919,13.919,0,0,0,830.743,5614.694Zm24.642,18.939H843.654a6.432,6.432,0,0,1-5.01-1.81c-1.133-1.229-1.684-3.05-1.685-5.647-.075-2.371.421-4.083,1.515-5.235,1.11-1.167,2.853-1.759,5.18-1.759h11.731Z" fill="#fff"/>
        <path id="패스_6" data-name="패스 6" d="M820.912,5584.439H785v9.993h26.2v15.834H786.223v10.377H811.2v12.99H785v9.993h35.912Z" fill="#fff"/>
      </g>
      <g id="top">
        <path id="패스_7" data-name="패스 7" d="M794.757,5527.2h4.914v47.112h9.757V5527.2h4.918l.072,47.112h9.756l-.078-56.682H785v56.682h9.757Z" fill="#fff"/>
        <path id="패스_8" data-name="패스 8" d="M847.281,5575.56h.2c6.656,0,11.862-2.684,15.473-7.98,3.47-5.091,5.229-12.363,5.229-21.612s-1.759-16.521-5.23-21.615a17.759,17.759,0,0,0-15.675-7.978c-6.735.055-12.006,2.773-15.668,8.079-3.5,5.069-5.273,12.307-5.273,21.514,0,9.156,1.773,16.381,5.27,21.473C835.27,5572.774,840.543,5575.506,847.281,5575.56Zm-11.186-29.591c0-6.717,1.06-11.876,3.148-15.333a9.23,9.23,0,0,1,16.068-.008c2.068,3.459,3.117,8.62,3.117,15.341,0,6.673-1.05,11.824-3.12,15.308a9.193,9.193,0,0,1-16.061-.009C837.155,5557.786,836.095,5552.639,836.095,5545.969Z" fill="#fff"/>
        <path id="패스_9" data-name="패스 9" d="M885.963,5574.309h10.19V5527.2h17.057v-9.569h-43.87v9.569h16.623Z" fill="#fff"/>
        <path id="패스_10" data-name="패스 10" d="M928.6,5548.176h17.924v26.132h9.76l-.078-56.682h-9.754v20.979H928.6v-20.979h-9.757v56.682H928.6Z" fill="#fff"/>
        <path id="패스_11" data-name="패스 11" d="M960.764,5574.309h36.064v-9.57H970.521v-15.164H995.6v-9.938H970.521V5527.2h26.307v-9.569H960.764Z" fill="#fff"/>
        <path id="패스_12" data-name="패스 12" d="M1012.871,5550.6h6.383l12.863,23.7h11.892l-13.3-24.513a14.024,14.024,0,0,0,6.9-4.462c2.332-2.8,3.513-6.528,3.513-11.071,0-5.254-1.47-9.388-4.373-12.288s-6.964-4.348-12.1-4.348h-21.538v56.682h9.757Zm0-23.409h11.781a6.64,6.64,0,0,1,5.031,1.734c1.137,1.177,1.691,2.921,1.692,5.408.075,2.271-.423,3.91-1.522,5.013-1.115,1.118-2.865,1.685-5.2,1.685h-11.781Z" fill="#fff"/>
      </g>
    </g>
    <path id="icon" d="M1099.1,5645.068l35.9-36.919-35.9-36.919V5556.5l22.337,22.969,6.783-6.975-29.12-29.944v-13.67l12.162,12.506,6.783-6.976L1094.3,5510l-23.742,24.413,6.784,6.976,12.161-12.506v13.67l-29.119,29.944,6.783,6.975L1089.5,5556.5v14.727l-35.9,36.919,35.9,36.919v.145h.142L1094.3,5650l4.655-4.787h.141Zm22.337-36.919-22.337,22.968V5585.18Zm-54.266,0,22.336-22.969v45.937Z" fill="#fff"/>
  </g>
</svg>
