<svg xmlns="http://www.w3.org/2000/svg" width="150" height="150" viewBox="0 0 150 150">
  <g id="btn_2" transform="translate(-742.407 -2955.183)">
    <g id="그룹_27" data-name="그룹 27">
      <path id="패스_60" data-name="패스 60" d="M843.092,3063.621l-12.08-24.582h5.978L826.4,3017.484h6.67l-15.237-31.02-15.237,31.02h6.666l-10.586,21.555h5.978l-12.081,24.582h22.583v10.28h6.629v-10.28Z" fill="#284646"/>
      <g id="그룹_26" data-name="그룹 26">
        <path id="패스_61" data-name="패스 61" d="M829.389,3018.6l-.6,1.224.478.972h3.2l-1.6,3.256,7.911,16.1H832.8l7.466,15.695v-6.317h13.273l-7.525-15.311h3.724l-6.6-13.426h4.153l-9.49-19.32-5.681,11.561,2.734,5.563Z" fill="#284646"/>
        <path id="패스_62" data-name="패스 62" d="M796.889,3040.152l7.484-15.238-2.025-4.121H806.4l.052-.105-1.026-2.091h-4.615l2.306-4.7-6.106-12.429-9.49,19.32h4.153l-6.594,13.426H788.8l-7.525,15.311h14.068v6.4h.017l7.506-15.778Z" fill="#284646"/>
      </g>
    </g>
    <path id="패스_63" data-name="패스 63" d="M817.4,2955.183a75,75,0,1,0,75.008,75A75.083,75.083,0,0,0,817.4,2955.183Zm0,144.6a69.6,69.6,0,1,1,69.621-69.6A69.67,69.67,0,0,1,817.4,3099.784Z" fill="#284646"/>
  </g>
</svg>
