<svg xmlns="http://www.w3.org/2000/svg" width="150" height="150" viewBox="0 0 150 150">
  <g id="btn_1" transform="translate(-456.542 -2955.196)">
    <g id="그룹_24" data-name="그룹 24">
      <g id="그룹_20" data-name="그룹 20">
        <g id="그룹_19" data-name="그룹 19">
          <path id="패스_48" data-name="패스 48" d="M571.536,3062.7h11.043l-13.455-19.231-3.736,2.759-6.194-7.353-1.5,2.206Z" fill="#284646"/>
          <path id="패스_49" data-name="패스 49" d="M568.664,3042.438l-5.858-9.138-3.15,4.753,5.731,6.8Z" fill="#284646"/>
          <path id="패스_50" data-name="패스 50" d="M537.556,3026.8l-3.176,2.84-2.169-7.341-9.04,16.664,14.263,23.743h32.41l-20.834-32.983-2.556,3.828Z" fill="#284646"/>
          <path id="패스_51" data-name="패스 51" d="M532.758,3021.377l1.964,6.875,2.835-2.825,8.757,6.833,2.334-3.494-10.175-17.048Z" fill="#284646"/>
          <path id="패스_52" data-name="패스 52" d="M506.619,3035.391l-18.177,27.31h47.3l-16.637-27.31-6.23,5.258Z" fill="#284646"/>
          <path id="패스_53" data-name="패스 53" d="M507.359,3034.313l5.516,4.964,5.723-4.831-5.347-9.021Z" fill="#284646"/>
        </g>
      </g>
      <g id="그룹_21" data-name="그룹 21">
        <path id="패스_54" data-name="패스 54" d="M492.907,3022.123a10.273,10.273,0,0,1-4.2-1.422,26.466,26.466,0,0,0,7.113,10.554,12.279,12.279,0,0,1-5.194-1.542,24.935,24.935,0,0,0,7.824,11.028,20.141,20.141,0,0,1-9.605-2.134l.012,14.469h-2.17l.026-14.469a20.142,20.142,0,0,1-9.607,2.134,24.927,24.927,0,0,0,7.827-11.028,12.29,12.29,0,0,1-5.194,1.542,26.479,26.479,0,0,0,7.117-10.554,10.285,10.285,0,0,1-4.2,1.422c3.2-2.9,5.124-8.593,5.124-8.593S489.7,3019.222,492.907,3022.123Z" fill="#284646"/>
        <path id="패스_55" data-name="패스 55" d="M507.224,3014.886a7.4,7.4,0,0,1-3-1.015,18.944,18.944,0,0,0,5.082,7.539,8.839,8.839,0,0,1-3.71-1.1,17.821,17.821,0,0,0,5.59,7.88,14.416,14.416,0,0,1-6.86-1.528l.005,10.333h-1.547l.014-10.333a14.412,14.412,0,0,1-6.86,1.528,17.791,17.791,0,0,0,5.59-7.88,8.821,8.821,0,0,1-3.71,1.1,18.939,18.939,0,0,0,5.087-7.539,7.4,7.4,0,0,1-3,1.015c2.284-2.076,3.656-6.139,3.656-6.139S504.94,3012.81,507.224,3014.886Z" fill="#284646"/>
      </g>
      <g id="그룹_23" data-name="그룹 23">
        <path id="패스_56" data-name="패스 56" d="M563.361,2990.9c.561.022.77.083.245.511a11.664,11.664,0,0,0-2.384,2.7,10.285,10.285,0,0,0,3.689,14.074,11.674,11.674,0,0,0,3.4,1.181c.668.116.383.337.035.571a9.818,9.818,0,0,1-9.54-.153,10.283,10.283,0,0,1-3.695-14.07A9.77,9.77,0,0,1,563.361,2990.9Z" fill="#284646"/>
        <g id="그룹_22" data-name="그룹 22">
          <path id="패스_57" data-name="패스 57" d="M567.557,3015.372l-.534,2.384-2.384.528,2.384.53.534,2.382.522-2.382,2.384-.53-2.384-.528Z" fill="#284646"/>
          <path id="패스_58" data-name="패스 58" d="M575,3008.577l.847-3.833,3.832-.848-3.832-.849-.847-3.832-.846,3.832-3.837.849,3.837.848Z" fill="#284646"/>
        </g>
      </g>
    </g>
    <path id="패스_59" data-name="패스 59" d="M531.547,2955.2a75,75,0,1,0,74.995,75A75.088,75.088,0,0,0,531.547,2955.2Zm0,144.6a69.6,69.6,0,1,1,69.608-69.6A69.68,69.68,0,0,1,531.547,3099.8Z" fill="#284646"/>
  </g>
</svg>
