<svg xmlns="http://www.w3.org/2000/svg" width="150" height="150" viewBox="0 0 150 150">
  <g id="btn_3" transform="translate(-1028.271 -2955.183)">
    <path id="_11" data-name="11" d="M1103.277,2955.183a75,75,0,1,0,74.994,75A75.091,75.091,0,0,0,1103.277,2955.183Zm0,144.611a69.611,69.611,0,1,1,69.6-69.608A69.7,69.7,0,0,1,1103.277,3099.794Z" fill="#284646"/>
    <g id="그룹_51" data-name="그룹 51">
      <g id="그룹_35" data-name="그룹 35">
        <g id="그룹_31" data-name="그룹 31">
          <g id="그룹_30" data-name="그룹 30">
            <path id="패스_64" data-name="패스 64" d="M1104.645,3027.619a1.377,1.377,0,0,1-1.243,1.478h-.258a1.377,1.377,0,0,1-1.247-1.478v-24.728a1.378,1.378,0,0,1,1.247-1.479h.258a1.378,1.378,0,0,1,1.243,1.479Z" fill="#284646"/>
            <g id="그룹_29" data-name="그룹 29">
              <path id="패스_65" data-name="패스 65" d="M1112.619,3050.28h20.624c-22.8-13.684-29.969-42.367-29.969-42.367s-7.172,28.683-29.975,42.367h20.624a84,84,0,0,0,9.351-21.183A83.752,83.752,0,0,0,1112.619,3050.28Z" fill="#284646"/>
            </g>
          </g>
        </g>
        <g id="그룹_32" data-name="그룹 32">
          <path id="패스_66" data-name="패스 66" d="M1097.254,3012.759h12.66a.662.662,0,0,0,0-1.324h-12.66a.662.662,0,0,0,0,1.324Z" fill="#284646"/>
        </g>
        <g id="그룹_33" data-name="그룹 33">
          <path id="패스_67" data-name="패스 67" d="M1098.633,3004.641q2.692,5.728,5.385,11.46c.363.772,1.5.1,1.143-.67q-2.691-5.73-5.384-11.459c-.363-.773-1.506-.1-1.144.669Z" fill="#284646"/>
        </g>
        <g id="그룹_34" data-name="그룹 34">
          <path id="패스_68" data-name="패스 68" d="M1106.766,3003.972q-2.694,5.729-5.385,11.459c-.361.768.781,1.442,1.144.67q2.691-5.733,5.384-11.46c.362-.769-.78-1.442-1.143-.669Z" fill="#284646"/>
        </g>
      </g>
      <g id="그룹_50" data-name="그룹 50">
        <g id="그룹_42" data-name="그룹 42">
          <g id="그룹_38" data-name="그룹 38">
            <g id="그룹_37" data-name="그룹 37">
              <path id="패스_69" data-name="패스 69" d="M1065.3,3035.816a.891.891,0,0,1-.8.956h-.167a.891.891,0,0,1-.806-.956v-15.983a.891.891,0,0,1,.806-.956h.167a.891.891,0,0,1,.8.956Z" fill="#284646"/>
              <g id="그룹_36" data-name="그룹 36">
                <path id="패스_70" data-name="패스 70" d="M1070.448,3050.464h13.332c-14.739-8.847-19.371-27.385-19.371-27.385s-4.636,18.538-19.375,27.385h13.331a54.339,54.339,0,0,0,6.044-13.692A54.151,54.151,0,0,0,1070.448,3050.464Z" fill="#284646"/>
              </g>
            </g>
          </g>
          <g id="그룹_39" data-name="그룹 39">
            <path id="패스_71" data-name="패스 71" d="M1060.517,3026.212h8.183a.429.429,0,0,0,0-.857h-8.183a.429.429,0,0,0,0,.857Z" fill="#284646"/>
          </g>
          <g id="그룹_40" data-name="그룹 40">
            <path id="패스_72" data-name="패스 72" d="M1061.408,3020.964q1.742,3.7,3.481,7.408c.234.5.973.063.739-.433q-1.74-3.7-3.48-7.408c-.235-.5-.973-.063-.74.433Z" fill="#284646"/>
          </g>
          <g id="그룹_41" data-name="그룹 41">
            <path id="패스_73" data-name="패스 73" d="M1066.665,3020.531q-1.739,3.7-3.48,7.408c-.234.5.5.932.74.433q1.738-3.7,3.48-7.408c.234-.5-.505-.932-.74-.433Z" fill="#284646"/>
          </g>
        </g>
        <g id="그룹_49" data-name="그룹 49">
          <g id="그룹_45" data-name="그룹 45">
            <g id="그룹_44" data-name="그룹 44">
              <path id="패스_74" data-name="패스 74" d="M1143.024,3035.816a.891.891,0,0,1-.8.956h-.166a.891.891,0,0,1-.806-.956v-15.983a.891.891,0,0,1,.806-.956h.166a.891.891,0,0,1,.8.956Z" fill="#284646"/>
              <g id="그룹_43" data-name="그룹 43">
                <path id="패스_75" data-name="패스 75" d="M1148.178,3050.464h13.33c-14.738-8.847-19.37-27.385-19.37-27.385s-4.637,18.538-19.375,27.385h13.331a54.335,54.335,0,0,0,6.044-13.692A54.1,54.1,0,0,0,1148.178,3050.464Z" fill="#284646"/>
              </g>
            </g>
          </g>
          <g id="그룹_46" data-name="그룹 46">
            <path id="패스_76" data-name="패스 76" d="M1138.247,3026.212h8.183a.429.429,0,0,0,0-.857h-8.183a.429.429,0,0,0,0,.857Z" fill="#284646"/>
          </g>
          <g id="그룹_47" data-name="그룹 47">
            <path id="패스_77" data-name="패스 77" d="M1139.138,3020.964q1.74,3.7,3.48,7.408c.235.5.973.063.739-.433q-1.74-3.7-3.479-7.408c-.235-.5-.974-.063-.74.433Z" fill="#284646"/>
          </g>
          <g id="그룹_48" data-name="그룹 48">
            <path id="패스_78" data-name="패스 78" d="M1144.394,3020.531l-3.479,7.408c-.234.5.5.932.738.433q1.74-3.7,3.481-7.408c.234-.5-.505-.932-.74-.433Z" fill="#284646"/>
          </g>
        </g>
      </g>
    </g>
  </g>
</svg>
