<svg id="Layer_1" data-name="Layer 1" xmlns="http://www.w3.org/2000/svg" viewBox="0 0 500 150"><defs><style>.cls-1,.cls-2{fill:#fff;}.cls-2{font-size:59.99px;font-family:Bungee-Regular, Bungee;}.cls-3{letter-spacing:-0.07em;}.cls-4{letter-spacing:0em;}</style></defs><title>Artboard 1</title><g id="LOGO"><path class="cls-1" d="M250,20c64.88,0,125.62,7.5,171,21.12C465.59,54.48,480,69.7,480,75s-14.41,20.5-59,33.87C375.62,122.47,314.88,130,250,130s-125.62-7.5-171-21.12C34.41,95.48,20,80.26,20,75s14.41-20.5,59-33.86C124.38,27.5,185.12,20,250,20m0-20C111.93,0,0,33.57,0,75s111.93,75,250,75,250-33.58,250-75S388.07,0,250,0Z"/><text class="cls-2" transform="translate(104.5 95.05)">ME<tspan class="cls-3" x="90.16" y="0">L</tspan><tspan class="cls-4" x="127.65" y="0">TING</tspan></text></g></svg>