<?xml version="1.0" encoding="utf-8"?>
<!-- Generator: Adobe Illustrator 24.0.0, SVG Export Plug-In . SVG Version: 6.00 Build 0)  -->
<svg version="1.1" id="Layer_1" xmlns="http://www.w3.org/2000/svg" xmlns:xlink="http://www.w3.org/1999/xlink" x="0px" y="0px"
	 viewBox="0 0 100 100" style="enable-background:new 0 0 100 100;" xml:space="preserve">
<style type="text/css">
	.st0{fill:#FF8CA3;}
	.st1{fill:#FFFFFF;}
</style>
<g id="time_x5F_icon_00000139977694520163313550000011579559739214545824_">
	<path class="st0" d="M795.97,1246.52c-6.63,0-12,5.37-12,12c0,6.63,5.37,12,12,12c6.63,0,12-5.37,12-12
		C807.97,1251.89,802.6,1246.52,795.97,1246.52z M795.97,1267.9c-5.17,0-9.38-4.21-9.38-9.38s4.21-9.38,9.38-9.38
		c5.17,0,9.37,4.21,9.37,9.38S801.14,1267.9,795.97,1267.9z"/>
	<path class="st0" d="M800.13,1257.95h-3.32v-5.58c0-0.66-0.54-1.2-1.2-1.2c-0.66,0-1.2,0.54-1.2,1.2v6.78c0,0.66,0.54,1.2,1.2,1.2
		h4.52c0.66,0,1.2-0.54,1.2-1.2S800.79,1257.95,800.13,1257.95z"/>
</g>
<g id="time_x5F_icon">
	<path class="st1" d="M50,0C22.39,0,0,22.39,0,50c0,27.62,22.39,50,50,50c27.62,0,50-22.38,50-50C100,22.39,77.62,0,50,0z M50,89.06
		c-21.54,0-39.06-17.52-39.06-39.06S28.46,10.94,50,10.94S89.06,28.46,89.06,50S71.54,89.06,50,89.06z"/>
	<path class="st1" d="M67.35,47.64H53.5V24.38c0-2.75-2.23-4.98-4.98-4.98s-4.98,2.23-4.98,4.98v28.24c0,2.75,2.23,4.98,4.98,4.98
		h18.82c2.75,0,4.98-2.23,4.98-4.98S70.1,47.64,67.35,47.64z"/>
</g>
</svg>
