<?xml version="1.0" encoding="utf-8"?>
<!-- Generator: Adobe Illustrator 24.0.0, SVG Export Plug-In . SVG Version: 6.00 Build 0)  -->
<svg version="1.1" id="Layer_1" xmlns="http://www.w3.org/2000/svg" xmlns:xlink="http://www.w3.org/1999/xlink" x="0px" y="0px"
	 viewBox="0 0 100 100" style="enable-background:new 0 0 100 100;" xml:space="preserve">
<style type="text/css">
	.st0{fill:#FF8CA3;}
	.st1{fill:#FFFFFF;}
</style>
<g id="time_x5F_icon_00000139977694520163313550000011579559739214545824_">
	<path class="st0" d="M795.97,1246.52c-6.63,0-12,5.37-12,12c0,6.63,5.37,12,12,12c6.63,0,12-5.37,12-12
		C807.97,1251.89,802.6,1246.52,795.97,1246.52z M795.97,1267.9c-5.17,0-9.38-4.21-9.38-9.38s4.21-9.38,9.38-9.38
		c5.17,0,9.37,4.21,9.37,9.38S801.14,1267.9,795.97,1267.9z"/>
	<path class="st0" d="M800.13,1257.95h-3.32v-5.58c0-0.66-0.54-1.2-1.2-1.2c-0.66,0-1.2,0.54-1.2,1.2v6.78c0,0.66,0.54,1.2,1.2,1.2
		h4.52c0.66,0,1.2-0.54,1.2-1.2S800.79,1257.95,800.13,1257.95z"/>
</g>
<g>
	<g>
		<path class="st1" d="M100,16.6c-3.68,1.76-7.63,2.95-11.78,3.48c4.23-2.73,7.48-7.06,9.01-12.22c-3.96,2.53-8.35,4.37-13.02,5.36
			c-3.75-4.29-9.08-6.98-14.97-6.98c-11.33,0-20.52,9.89-20.52,22.09c0,1.73,0.18,3.41,0.54,5.04C32.2,32.45,17.08,23.65,6.97,10.29
			C5.2,13.55,4.18,17.35,4.18,21.4c0,7.66,3.62,14.42,9.13,18.39c-3.36-0.11-6.53-1.11-9.3-2.77c0,0.09,0,0.19,0,0.28
			c0,10.7,7.07,19.63,16.46,21.66c-1.72,0.5-3.53,0.78-5.4,0.78c-1.32,0-2.61-0.14-3.86-0.4c2.61,8.78,10.19,15.16,19.17,15.35
			c-7.02,5.92-15.86,9.45-25.48,9.45c-1.65,0-3.29-0.11-4.9-0.3c9.08,6.27,19.87,9.92,31.45,9.92c37.74,0,58.37-33.66,58.37-62.85
			c0-0.96-0.02-1.91-0.06-2.86C93.77,24.93,97.25,21.04,100,16.6z"/>
	</g>
</g>
</svg>
