<?xml version="1.0" encoding="utf-8"?>
<!-- Generator: Adobe Illustrator 24.0.0, SVG Export Plug-In . SVG Version: 6.00 Build 0)  -->
<svg version="1.1" id="Layer_1" xmlns="http://www.w3.org/2000/svg" xmlns:xlink="http://www.w3.org/1999/xlink" x="0px" y="0px"
	 viewBox="0 0 100 100" style="enable-background:new 0 0 100 100;" xml:space="preserve">
<style type="text/css">
	.st0{fill:#FF8CA3;}
	.st1{fill:#FFFFFF;}
</style>
<g id="time_x5F_icon_00000139977694520163313550000011579559739214545824_">
	<path class="st0" d="M795.97,1246.52c-6.63,0-12,5.37-12,12c0,6.63,5.37,12,12,12c6.63,0,12-5.37,12-12
		C807.97,1251.89,802.6,1246.52,795.97,1246.52z M795.97,1267.9c-5.17,0-9.38-4.21-9.38-9.38s4.21-9.38,9.38-9.38
		c5.17,0,9.37,4.21,9.37,9.38S801.14,1267.9,795.97,1267.9z"/>
	<path class="st0" d="M800.13,1257.95h-3.32v-5.58c0-0.66-0.54-1.2-1.2-1.2c-0.66,0-1.2,0.54-1.2,1.2v6.78c0,0.66,0.54,1.2,1.2,1.2
		h4.52c0.66,0,1.2-0.54,1.2-1.2S800.79,1257.95,800.13,1257.95z"/>
</g>
<path id="map_x5F_icon" class="st1" d="M50,0C29.59,0,13.04,14.98,13.04,35.4c0,12.94,5.36,20.49,5.36,20.49l25.49,40.94
	c2.97,4.24,9.26,4.24,12.23,0L81.6,55.88c0,0,5.36-8.07,5.36-20.49C86.96,14.98,70.41,0,50,0z M50,42.33
	c-5.93,0-10.73-4.8-10.73-10.73c0-5.93,4.8-10.73,10.73-10.73c5.93,0,10.73,4.8,10.73,10.73C60.73,37.52,55.93,42.33,50,42.33z"/>
</svg>
