<?xml version="1.0" encoding="utf-8"?>
<!-- Generator: Adobe Illustrator 24.0.0, SVG Export Plug-In . SVG Version: 6.00 Build 0)  -->
<svg version="1.1" id="Layer_1" xmlns="http://www.w3.org/2000/svg" xmlns:xlink="http://www.w3.org/1999/xlink" x="0px" y="0px"
	 viewBox="0 0 100 100" style="enable-background:new 0 0 100 100;" xml:space="preserve">
<style type="text/css">
	.st0{fill:#FF8CA3;}
	.st1{fill:#FFFFFF;}
</style>
<g id="time_x5F_icon_00000139977694520163313550000011579559739214545824_">
	<path class="st0" d="M795.97,1246.52c-6.63,0-12,5.37-12,12c0,6.63,5.37,12,12,12c6.63,0,12-5.37,12-12
		C807.97,1251.89,802.6,1246.52,795.97,1246.52z M795.97,1267.9c-5.17,0-9.38-4.21-9.38-9.38s4.21-9.38,9.38-9.38
		c5.17,0,9.37,4.21,9.37,9.38S801.14,1267.9,795.97,1267.9z"/>
	<path class="st0" d="M800.13,1257.95h-3.32v-5.58c0-0.66-0.54-1.2-1.2-1.2c-0.66,0-1.2,0.54-1.2,1.2v6.78c0,0.66,0.54,1.2,1.2,1.2
		h4.52c0.66,0,1.2-0.54,1.2-1.2S800.79,1257.95,800.13,1257.95z"/>
</g>
<path id="mail_x5F_icon" class="st1" d="M0,21.33v57.34c0,5.74,4.33,10.39,9.67,10.39h80.65c5.34,0,9.67-4.65,9.67-10.39V21.33
	c0-5.74-4.33-10.39-9.67-10.39H9.67C4.33,10.94,0,15.59,0,21.33z M81.84,22.33L55.53,42.67c-3.3,2.55-7.75,2.55-11.05,0L18.16,22.33
	H81.84z M87.45,79.5h-74.9c-2.01,0-3.65-1.75-3.65-3.92V28.19l34.24,27.1c3.3,2.55,11.07,2.55,14.37,0l33.58-27.1v47.39
	C91.09,77.74,89.46,79.5,87.45,79.5z"/>
</svg>
