<?xml version="1.0" encoding="utf-8"?>
<!-- Generator: Adobe Illustrator 24.0.0, SVG Export Plug-In . SVG Version: 6.00 Build 0)  -->
<svg version="1.1" id="Layer_1" xmlns="http://www.w3.org/2000/svg" xmlns:xlink="http://www.w3.org/1999/xlink" x="0px" y="0px"
	 viewBox="0 0 100 100" style="enable-background:new 0 0 100 100;" xml:space="preserve">
<style type="text/css">
	.st0{fill:#FF8CA3;}
	.st1{fill:#FFFFFF;}
</style>
<g id="time_x5F_icon_00000139977694520163313550000011579559739214545824_">
	<path class="st0" d="M795.97,1246.52c-6.63,0-12,5.37-12,12c0,6.63,5.37,12,12,12c6.63,0,12-5.37,12-12
		C807.97,1251.89,802.6,1246.52,795.97,1246.52z M795.97,1267.9c-5.17,0-9.38-4.21-9.38-9.38s4.21-9.38,9.38-9.38
		c5.17,0,9.37,4.21,9.37,9.38S801.14,1267.9,795.97,1267.9z"/>
	<path class="st0" d="M800.13,1257.95h-3.32v-5.58c0-0.66-0.54-1.2-1.2-1.2c-0.66,0-1.2,0.54-1.2,1.2v6.78c0,0.66,0.54,1.2,1.2,1.2
		h4.52c0.66,0,1.2-0.54,1.2-1.2S800.79,1257.95,800.13,1257.95z"/>
</g>
<g>
	<g>
		<path class="st1" d="M99.33,32.61c0-7.32-6.47-13.24-14.44-13.24c-10.82-0.43-21.86-0.61-33.13-0.61c-0.59,0-1.18,0-1.76,0
			c-0.59,0-1.17,0-1.76,0c-11.26,0-22.31,0.19-33.12,0.61c-7.97,0-14.44,5.93-14.44,13.24C0.2,38.4-0.01,44.2,0,49.99
			c-0.01,5.8,0.2,11.58,0.67,17.39c0,7.3,6.46,13.23,14.44,13.23c11.38,0.47,23.02,0.66,34.89,0.63c11.87,0.02,23.5-0.17,34.89-0.63
			c7.97,0,14.44-5.92,14.44-13.23c0.48-5.81,0.69-11.6,0.67-17.39C100.02,44.2,99.81,38.4,99.33,32.61z M65.33,52.78L37.81,67.57
			c-2.89,1.56-5.26,0.3-5.26-2.79L32.5,35.24c-0.01-3.09,2.36-4.36,5.26-2.82l27.56,14.73C68.22,48.69,68.22,51.23,65.33,52.78z"/>
	</g>
</g>
</svg>
