<?xml version="1.0" encoding="utf-8"?>
<!-- Generator: Adobe Illustrator 24.0.0, SVG Export Plug-In . SVG Version: 6.00 Build 0)  -->
<svg version="1.1" id="Layer_1" xmlns="http://www.w3.org/2000/svg" xmlns:xlink="http://www.w3.org/1999/xlink" x="0px" y="0px"
	 viewBox="0 0 100 100" style="enable-background:new 0 0 100 100;" xml:space="preserve">
<style type="text/css">
	.st0{fill:#FF8CA3;}
	.st1{fill:#FFFFFF;}
</style>
<g id="time_x5F_icon_00000139977694520163313550000011579559739214545824_">
	<path class="st0" d="M795.97,1246.52c-6.63,0-12,5.37-12,12c0,6.63,5.37,12,12,12c6.63,0,12-5.37,12-12
		C807.97,1251.89,802.6,1246.52,795.97,1246.52z M795.97,1267.9c-5.17,0-9.38-4.21-9.38-9.38s4.21-9.38,9.38-9.38
		c5.17,0,9.37,4.21,9.37,9.38S801.14,1267.9,795.97,1267.9z"/>
	<path class="st0" d="M800.13,1257.95h-3.32v-5.58c0-0.66-0.54-1.2-1.2-1.2c-0.66,0-1.2,0.54-1.2,1.2v6.78c0,0.66,0.54,1.2,1.2,1.2
		h4.52c0.66,0,1.2-0.54,1.2-1.2S800.79,1257.95,800.13,1257.95z"/>
</g>
<g id="pone_x5F_icon">
	<path class="st1" d="M71.43,0H28.57c-7.89,0-14.29,6.4-14.29,14.29v71.43c0,7.89,6.4,14.29,14.29,14.29h42.86
		c7.89,0,14.29-6.4,14.29-14.29V14.29C85.71,6.4,79.32,0,71.43,0z M78.57,85.71c0,3.94-3.2,7.14-7.14,7.14H28.57
		c-3.94,0-7.14-3.2-7.14-7.14V14.29c0-3.94,3.2-7.14,7.14-7.14h10.75c0.25,2.13,2.06,3.78,4.25,3.78h12.86c2.2,0,4-1.65,4.25-3.78
		h10.75c3.94,0,7.14,3.2,7.14,7.14V85.71z"/>
	<path class="st1" d="M63.77,87.82l-27.54,0c-0.28,0-0.51-0.23-0.51-0.51v-3.26c0-0.28,0.23-0.51,0.51-0.51h27.54
		c0.28,0,0.51,0.23,0.51,0.51v3.26C64.29,87.59,64.06,87.82,63.77,87.82z"/>
</g>
</svg>
