<?xml version="1.0" encoding="utf-8"?>
<!-- Generator: Adobe Illustrator 24.0.0, SVG Export Plug-In . SVG Version: 6.00 Build 0)  -->
<svg version="1.1" id="Layer_1" xmlns="http://www.w3.org/2000/svg" xmlns:xlink="http://www.w3.org/1999/xlink" x="0px" y="0px"
	 viewBox="0 0 100 100" style="enable-background:new 0 0 100 100;" xml:space="preserve">
<style type="text/css">
	.st0{fill:#FF8CA3;}
	.st1{fill:#FFFFFF;}
</style>
<g id="time_x5F_icon_00000139977694520163313550000011579559739214545824_">
	<path class="st0" d="M795.97,1246.52c-6.63,0-12,5.37-12,12c0,6.63,5.37,12,12,12c6.63,0,12-5.37,12-12
		C807.97,1251.89,802.6,1246.52,795.97,1246.52z M795.97,1267.9c-5.17,0-9.38-4.21-9.38-9.38s4.21-9.38,9.38-9.38
		c5.17,0,9.37,4.21,9.37,9.38S801.14,1267.9,795.97,1267.9z"/>
	<path class="st0" d="M800.13,1257.95h-3.32v-5.58c0-0.66-0.54-1.2-1.2-1.2c-0.66,0-1.2,0.54-1.2,1.2v6.78c0,0.66,0.54,1.2,1.2,1.2
		h4.52c0.66,0,1.2-0.54,1.2-1.2S800.79,1257.95,800.13,1257.95z"/>
</g>
<g>
	<g>
		<g>
			<g>
				<path class="st1" d="M81.86,0H18.14C8.16,0,0,8.16,0,18.14v63.73C0,91.84,8.16,100,18.14,100h63.73
					c9.98,0,18.14-8.16,18.14-18.14V18.14C100,8.16,91.84,0,81.86,0z M70.1,14.05c0.01-2.27,1.77-3.97,4.1-3.98
					c3.97,0,7.94,0,11.92,0c2.06,0,3.68,1.34,4.03,3.31c0.04,0.21,0.05,0.42,0.05,0.63c0,3.91,0.01,7.81,0,11.7
					c-0.01,1.97-1.35,3.54-3.34,3.9c-0.25,0.05-0.51,0.05-0.77,0.05c-1.99,0.01-3.97,0.01-5.96,0.01c-1.98,0-3.97-0.02-5.96,0.01
					c-1.78,0.03-3.71-1.24-4.03-3.41c-0.03-0.18-0.03-0.37-0.03-0.55C70.1,21.83,70.09,17.94,70.1,14.05z M50,29.67
					c11.1,0,20.1,8.78,20.1,19.61c0,10.83-8.98,19.59-20.1,19.59c-11.11,0-20.07-8.74-20.09-19.59C29.89,38.63,38.73,29.69,50,29.67
					z M90.19,41.98c0,11.61,0,23.22,0,34.84c0,2.57,0.01,5.14,0,7.72c-0.01,1.9-1.3,3.46-3.2,3.84c-0.37,0.08-0.76,0.09-1.13,0.09
					c-11.54,0.01-23.08,0.01-34.62,0.01c-12.35,0-24.71,0-37.06,0.01c-0.54,0-1.06-0.04-1.57-0.2c-1.56-0.49-2.64-1.82-2.78-3.4
					c-0.02-0.21-0.02-0.42-0.02-0.63c0-14.1,0-28.19,0-42.29c0-0.16,0-0.32,0-0.52c3.06,0,6.04,0,9.07,0
					c-2.06,8.14-1.06,15.9,3.11,23.21c2.98,5.2,7.19,9.23,12.54,12.11c5.29,2.85,11,4.17,17.03,3.82
					c10.09-0.58,18.18-4.88,24.33-12.69c5.87-8.03,7.58-16.84,5.26-26.44c3,0,6,0,9.04,0C90.19,41.64,90.19,41.81,90.19,41.98z"/>
			</g>
		</g>
	</g>
</g>
</svg>
