<svg xmlns="http://www.w3.org/2000/svg" width="62" height="62" viewBox="0 0 62 62">
  <g id="oder_btn" transform="translate(-1808 -804)">
    <circle id="타원_3" data-name="타원 3" cx="31" cy="31" r="31" transform="translate(1808 804)" fill="#ff716e"/>
    <path id="Sophing" d="M1851.837,840.813h-20.576v-.269l21.257-3.79a1.817,1.817,0,0,0,1.482-1.826l-.016-2.039a1.077,1.077,0,0,0-.018-.182l-.009-5.838a.987.987,0,0,0-.022-.2l-.011-1.414a1.818,1.818,0,0,0-1.787-1.826l-17.3.007-3.576,0v-2.589a1.816,1.816,0,0,0-1.788-1.839h-5.685a1.839,1.839,0,0,0,0,3.677h3.9v19.975a1.814,1.814,0,0,0,1.788,1.838h.464a4.818,4.818,0,0,0-.375,1.873,4.421,4.421,0,1,0,8.832,0,4.818,4.818,0,0,0-.375-1.873h5.386a4.818,4.818,0,0,0-.375,1.873,4.421,4.421,0,1,0,8.831,0,4.837,4.837,0,0,0-.374-1.873h.35a1.839,1.839,0,0,0,0-3.677Zm-4.391,4.591a.968.968,0,1,1-.841.959A.906.906,0,0,1,1847.446,845.4Zm-13.468,0a.968.968,0,1,1-.84.959A.906.906,0,0,1,1833.978,845.4Zm2.958-9.6v-8.692h2.407v8.264Zm8.125-8.7v7.246l-2.142.381v-7.627Zm-13.8,9.707V827.1l2.1,0v9.33Zm17.376-3.1V827.1h1.726v.109a1.064,1.064,0,0,0,.018.179l.009,5.841a.907.907,0,0,0,.014.166Z" fill="#fff"/>
  </g>
</svg>
