<svg xmlns="http://www.w3.org/2000/svg" width="24" height="24" viewBox="0 0 24 24">
  <g id="time_icon" transform="translate(-783.971 -1246.52)">
    <path id="패스_13" data-name="패스 13" d="M795.971,1246.52a12,12,0,1,0,12,12A12,12,0,0,0,795.971,1246.52Zm0,21.375a9.375,9.375,0,1,1,9.375-9.375A9.386,9.386,0,0,1,795.971,1267.9Z" fill="#8f1300"/>
    <path id="패스_14" data-name="패스 14" d="M800.134,1257.954h-3.322v-5.582a1.2,1.2,0,0,0-2.391,0v6.777a1.2,1.2,0,0,0,1.2,1.195h4.517a1.2,1.2,0,1,0,0-2.39Z" fill="#8f1300"/>
  </g>
</svg>
