<svg xmlns="http://www.w3.org/2000/svg" width="30" height="20" viewBox="0 0 30 20">
  <path id="패스_7" data-name="패스 7" d="M704.363,6074.279h-3.888a1.843,1.843,0,0,1-1.389-.453,2.082,2.082,0,0,1-.43-1.466v-2.134a2.082,2.082,0,0,1,.43-1.466,1.839,1.839,0,0,1,1.389-.454h3.484a1.278,1.278,0,0,0,1.011-.4,1.6,1.6,0,0,0,.353-1.093v-.8h-5.505a1.842,1.842,0,0,1-1.389-.453,2.091,2.091,0,0,1-.429-1.467V6056.2a2.091,2.091,0,0,1,.429-1.467,1.846,1.846,0,0,1,1.389-.453h10.2a1.849,1.849,0,0,1,1.389.453,2.1,2.1,0,0,1,.429,1.467v10.027q0,4.053-2.045,6.053A7.432,7.432,0,0,1,704.363,6074.279Zm16.162,0h-3.889a1.838,1.838,0,0,1-1.388-.453,2.082,2.082,0,0,1-.43-1.466v-2.134a2.082,2.082,0,0,1,.43-1.466,1.835,1.835,0,0,1,1.388-.454h3.485a1.277,1.277,0,0,0,1.01-.4,1.6,1.6,0,0,0,.354-1.093v-.8h-5.506a1.842,1.842,0,0,1-1.388-.453,2.091,2.091,0,0,1-.429-1.467V6056.2a2.091,2.091,0,0,1,.429-1.467,1.845,1.845,0,0,1,1.388-.453h10.2a1.845,1.845,0,0,1,1.388.453,2.091,2.091,0,0,1,.43,1.467v10.027q0,4.053-2.046,6.053A7.429,7.429,0,0,1,720.525,6074.279Z" transform="translate(-698 -6054.279)" fill="#8f1300"/>
</svg>
