<svg xmlns="http://www.w3.org/2000/svg" width="30" height="20" viewBox="0 0 30 20">
  <path id="패스_8" data-name="패스 8" d="M415.475,5874.279h3.889a1.849,1.849,0,0,1,1.389.453,2.1,2.1,0,0,1,.429,1.467v2.133a2.09,2.09,0,0,1-.429,1.467,1.84,1.84,0,0,1-1.389.454h-3.485a1.275,1.275,0,0,0-1.01.4,1.593,1.593,0,0,0-.354,1.093v.8h5.5a1.848,1.848,0,0,1,1.389.453,2.09,2.09,0,0,1,.429,1.467v7.894a2.087,2.087,0,0,1-.429,1.466,1.844,1.844,0,0,1-1.389.453h-10.2a1.843,1.843,0,0,1-1.389-.453,2.087,2.087,0,0,1-.429-1.466v-10.028q0-4.052,2.045-6.053A7.435,7.435,0,0,1,415.475,5874.279Zm16.161,0h3.889a1.846,1.846,0,0,1,1.389.453,2.091,2.091,0,0,1,.43,1.467v2.133a2.085,2.085,0,0,1-.43,1.467,1.837,1.837,0,0,1-1.389.454H432.04a1.277,1.277,0,0,0-1.01.4,1.592,1.592,0,0,0-.353,1.093v.8h5.505a1.85,1.85,0,0,1,1.389.453,2.1,2.1,0,0,1,.429,1.467v7.894a2.092,2.092,0,0,1-.429,1.466,1.846,1.846,0,0,1-1.389.453h-10.2a1.842,1.842,0,0,1-1.389-.453,2.082,2.082,0,0,1-.429-1.466v-10.028q0-4.052,2.045-6.053A7.433,7.433,0,0,1,431.636,5874.279Z" transform="translate(-408 -5874.279)" fill="#8f1300"/>
</svg>
